<svg xmlns="http://www.w3.org/2000/svg" xmlns:xlink="http://www.w3.org/1999/xlink" viewBox="0 0 2244.9 1455"><defs><style>.cls-1{fill:none;}.cls-2{fill:url(#linear-gradient);}.cls-3{fill:#bdd0fb;}.cls-14,.cls-4,.cls-42{fill:#fff;}.cls-4{opacity:0.62;}.cls-4,.cls-42{isolation:isolate;}.cls-5{fill:#dce5fe;}.cls-6{fill:url(#linear-gradient-2);}.cls-7{fill:url(#linear-gradient-3);}.cls-8{fill:url(#linear-gradient-4);}.cls-9{fill:#91b3fa;}.cls-10{fill:url(#linear-gradient-5);}.cls-11{fill:url(#linear-gradient-6);}.cls-12{fill:url(#linear-gradient-7);}.cls-13{opacity:0.74;}.cls-15{fill:url(#linear-gradient-8);}.cls-16{fill:url(#linear-gradient-9);}.cls-17{opacity:0.65;}.cls-18{fill:url(#linear-gradient-10);}.cls-19{fill:url(#linear-gradient-11);}.cls-20{opacity:0.78;}.cls-21{fill:url(#linear-gradient-12);}.cls-22{fill:url(#linear-gradient-13);}.cls-23{fill:url(#linear-gradient-14);}.cls-24{fill:url(#linear-gradient-15);}.cls-25{fill:url(#linear-gradient-16);}.cls-26{fill:url(#linear-gradient-17);}.cls-27{fill:url(#linear-gradient-18);}.cls-28{fill:url(#linear-gradient-19);}.cls-29{fill:url(#linear-gradient-20);}.cls-30{fill:url(#linear-gradient-21);}.cls-31{fill:url(#linear-gradient-22);}.cls-32{fill:url(#linear-gradient-23);}.cls-33{fill:url(#linear-gradient-24);}.cls-34{fill:url(#linear-gradient-25);}.cls-35{fill:url(#linear-gradient-26);}.cls-36{fill:#f0f0f0;}.cls-37{fill:url(#linear-gradient-27);}.cls-38{fill:url(#linear-gradient-28);}.cls-39{clip-path:url(#clip-path);}.cls-40{fill:url(#linear-gradient-29);}.cls-41{fill:url(#linear-gradient-30);}.cls-42{opacity:0.67;}.cls-43{fill:url(#linear-gradient-31);}.cls-44{fill:url(#linear-gradient-32);}.cls-45{fill:url(#linear-gradient-33);}.cls-46{fill:url(#linear-gradient-34);}.cls-47{fill:url(#linear-gradient-35);}.cls-48{fill:url(#linear-gradient-36);}.cls-49{fill:url(#linear-gradient-37);}.cls-50{fill:url(#linear-gradient-38);}.cls-51{fill:url(#linear-gradient-39);}.cls-52{fill:url(#linear-gradient-40);}.cls-53{fill:url(#linear-gradient-41);}.cls-54{fill:url(#linear-gradient-42);}.cls-55{fill:url(#linear-gradient-43);}.cls-56{fill:url(#linear-gradient-44);}.cls-57{fill:url(#linear-gradient-45);}.cls-58{fill:url(#linear-gradient-46);}.cls-59{fill:url(#linear-gradient-47);}.cls-60{fill:url(#linear-gradient-48);}.cls-61{fill:url(#linear-gradient-49);}.cls-62{fill:url(#linear-gradient-50);}.cls-63{fill:url(#linear-gradient-51);}.cls-64{fill:url(#linear-gradient-52);}.cls-65{fill:url(#linear-gradient-53);}.cls-66{fill:url(#linear-gradient-54);}.cls-67{fill:url(#linear-gradient-55);}.cls-68{fill:url(#linear-gradient-56);}.cls-69{fill:url(#linear-gradient-57);}.cls-70{fill:url(#linear-gradient-58);}.cls-71{fill:url(#linear-gradient-59);}.cls-72{fill:url(#linear-gradient-60);}.cls-73{fill:url(#linear-gradient-61);}.cls-74{fill:url(#linear-gradient-62);}</style><linearGradient id="linear-gradient" y1="751.06" x2="2244.89" y2="751.06" gradientTransform="matrix(1, 0, 0, -1, 0, 1430)" gradientUnits="userSpaceOnUse"><stop offset="0" stop-color="#dae3fe"/><stop offset="1" stop-color="#e9effd"/></linearGradient><linearGradient id="linear-gradient-2" x1="1149.72" y1="300.77" x2="1081.72" y2="-275.24" gradientTransform="matrix(1, 0, 0, -1, 0, 1430)" gradientUnits="userSpaceOnUse"><stop offset="0" stop-color="#09005d"/><stop offset="1" stop-color="#1a0f91"/></linearGradient><linearGradient id="linear-gradient-3" x1="259.12" y1="792.56" x2="1908.71" y2="792.56" xlink:href="#linear-gradient-2"/><linearGradient id="linear-gradient-4" x1="436.91" y1="1400.43" x2="2179.58" y2="-168.62" gradientTransform="matrix(1, 0, 0, -1, 0, 1430)" gradientUnits="userSpaceOnUse"><stop offset="0" stop-color="#4042e2"/><stop offset="1" stop-color="#4f52ff"/></linearGradient><linearGradient id="linear-gradient-5" x1="789.04" y1="56.15" x2="1446.06" y2="56.15" xlink:href="#linear-gradient-2"/><linearGradient id="linear-gradient-6" x1="175.61" y1="657.51" x2="345.17" y2="344.03" gradientTransform="matrix(1, 0, 0, -1, 0, 1430)" gradientUnits="userSpaceOnUse"><stop offset="0" stop-color="#e1473d"/><stop offset="1" stop-color="#e9605a"/></linearGradient><linearGradient id="linear-gradient-7" x1="328.22" y1="354.49" x2="249.35" y2="526.01" gradientTransform="matrix(1, 0, 0, -1, 0, 1430)" gradientUnits="userSpaceOnUse"><stop offset="0" stop-color="#fe7062"/><stop offset="1" stop-color="#ff928e"/></linearGradient><linearGradient id="linear-gradient-8" x1="177.53" y1="1350.45" x2="347.08" y2="1036.97" xlink:href="#linear-gradient-6"/><linearGradient id="linear-gradient-9" x1="330.13" y1="1047.42" x2="251.26" y2="1218.95" xlink:href="#linear-gradient-7"/><linearGradient id="linear-gradient-10" x1="177.53" y1="1006.41" x2="347.08" y2="692.93" xlink:href="#linear-gradient-6"/><linearGradient id="linear-gradient-11" x1="330.13" y1="703.38" x2="251.26" y2="874.91" xlink:href="#linear-gradient-7"/><linearGradient id="linear-gradient-12" x1="-3946.49" y1="559.04" x2="-3913.35" y2="475.91" gradientTransform="translate(-3335.2 1430) rotate(180)" gradientUnits="userSpaceOnUse"><stop offset="0" stop-color="#020039"/><stop offset="1" stop-color="#090056"/></linearGradient><linearGradient id="linear-gradient-13" x1="-4014.86" y1="511.01" x2="-3953.63" y2="371.7" gradientTransform="translate(-3335.2 1430) rotate(180)" gradientUnits="userSpaceOnUse"><stop offset="0" stop-color="#ff928e"/><stop offset="1" stop-color="#feb3b1"/></linearGradient><linearGradient id="linear-gradient-14" x1="-3825.34" y1="26.81" x2="-3797.23" y2="26.81" gradientTransform="translate(-3335.2 1430) rotate(180)" xlink:href="#linear-gradient-4"/><linearGradient id="linear-gradient-15" x1="-3944.08" y1="-84.02" x2="-3903.64" y2="388.65" xlink:href="#linear-gradient-13"/><linearGradient id="linear-gradient-16" x1="-3955.9" y1="31.94" x2="-3910.43" y2="31.94" gradientTransform="translate(-3335.2 1430) rotate(180)" xlink:href="#linear-gradient-4"/><linearGradient id="linear-gradient-17" x1="-3862.73" y1="-91.05" x2="-3822.28" y2="381.74" xlink:href="#linear-gradient-13"/><linearGradient id="linear-gradient-18" x1="-3943.08" y1="392.64" x2="-3922.86" y2="205.02" gradientTransform="translate(-3335.2 1430) rotate(180)" xlink:href="#linear-gradient-7"/><linearGradient id="linear-gradient-19" x1="-3831.69" y1="383.43" x2="-3932.8" y2="221.65" gradientTransform="translate(-3335.2 1430) rotate(180)" xlink:href="#linear-gradient-2"/><linearGradient id="linear-gradient-20" x1="612.76" y1="477.09" x2="587.76" y2="391.59" gradientTransform="matrix(1, 0, 0, -1, 0, 1430)" xlink:href="#linear-gradient-13"/><linearGradient id="linear-gradient-21" x1="-3917.21" y1="354.81" x2="-3866.74" y2="354.81" xlink:href="#linear-gradient-13"/><linearGradient id="linear-gradient-22" x1="-3967.69" y1="453.54" x2="-3901.41" y2="571.5" xlink:href="#linear-gradient-13"/><linearGradient id="linear-gradient-23" x1="-3953.44" y1="556.27" x2="-3920.3" y2="473.13" xlink:href="#linear-gradient-12"/><linearGradient id="linear-gradient-24" x1="-3953.58" y1="445.62" x2="-3887.3" y2="563.58" xlink:href="#linear-gradient-13"/><linearGradient id="linear-gradient-25" x1="-4026.96" y1="505.69" x2="-3965.73" y2="366.39" xlink:href="#linear-gradient-13"/><linearGradient id="linear-gradient-26" x1="735.47" y1="733.58" x2="720.47" y2="613.58" gradientTransform="matrix(1, 0, 0, -1, 0, 1430)" xlink:href="#linear-gradient-13"/><linearGradient id="linear-gradient-27" x1="1072.29" y1="1078.38" x2="1104.46" y2="314.4" xlink:href="#linear-gradient-7"/><linearGradient id="linear-gradient-28" x1="1071.36" y1="1245.74" x2="1102.47" y2="506.92" xlink:href="#linear-gradient-6"/><clipPath id="clip-path"><polygon class="cls-1" points="1398.6 481 1402.2 481 1402.2 81.5 768.7 81.5 768.7 481 769.2 481 767.4 482.3 925.7 577.9 1083.9 673.4 1242.2 577.9 1400.4 482.3 1398.6 481"/></clipPath><linearGradient id="linear-gradient-29" x1="1616.53" y1="866.15" x2="1856.87" y2="1145.11" xlink:href="#linear-gradient-6"/><linearGradient id="linear-gradient-30" x1="1992.67" y1="1348.58" x2="1282" y2="274.95" xlink:href="#linear-gradient-7"/><linearGradient id="linear-gradient-31" x1="1971.47" y1="1317.81" x2="1593.05" y2="682.51" xlink:href="#linear-gradient-7"/><linearGradient id="linear-gradient-32" x1="1885.71" y1="668.18" x2="2054.6" y2="864.22" xlink:href="#linear-gradient-6"/><linearGradient id="linear-gradient-33" x1="2150.04" y1="1007.2" x2="1650.62" y2="252.72" xlink:href="#linear-gradient-7"/><linearGradient id="linear-gradient-34" x1="2135.14" y1="985.58" x2="1869.21" y2="539.12" xlink:href="#linear-gradient-7"/><linearGradient id="linear-gradient-35" x1="1676.33" y1="585.5" x2="1820.74" y2="753.11" xlink:href="#linear-gradient-6"/><linearGradient id="linear-gradient-36" x1="1902.33" y1="875.36" x2="1475.33" y2="230.28" xlink:href="#linear-gradient-7"/><linearGradient id="linear-gradient-37" x1="1889.6" y1="856.88" x2="1662.22" y2="475.16" xlink:href="#linear-gradient-7"/><linearGradient id="linear-gradient-38" x1="1404.1" y1="229.08" x2="1510.16" y2="229.08" xlink:href="#linear-gradient-7"/><linearGradient id="linear-gradient-39" x1="1610.37" y1="225.85" x2="1733.23" y2="225.85" xlink:href="#linear-gradient-7"/><linearGradient id="linear-gradient-40" x1="1475.81" y1="359.37" x2="1648.49" y2="359.37" xlink:href="#linear-gradient-7"/><linearGradient id="linear-gradient-41" x1="1478.95" y1="359.37" x2="1645.35" y2="359.37" xlink:href="#linear-gradient-7"/><linearGradient id="linear-gradient-42" x1="1475.81" y1="269.43" x2="1648.49" y2="269.43" xlink:href="#linear-gradient-7"/><linearGradient id="linear-gradient-43" x1="1461.23" y1="269.43" x2="1668.01" y2="269.43" xlink:href="#linear-gradient-7"/><linearGradient id="linear-gradient-44" x1="1475.81" y1="179.48" x2="1648.49" y2="179.48" xlink:href="#linear-gradient-7"/><linearGradient id="linear-gradient-45" x1="1442.64" y1="179.48" x2="1687.77" y2="179.48" xlink:href="#linear-gradient-7"/><linearGradient id="linear-gradient-46" x1="1475.81" y1="89.53" x2="1706.5" y2="89.53" xlink:href="#linear-gradient-7"/><linearGradient id="linear-gradient-47" x1="1427.6" y1="89.53" x2="1706.5" y2="89.53" xlink:href="#linear-gradient-7"/><linearGradient id="linear-gradient-48" x1="-2887.53" y1="283.64" x2="-2852.26" y2="283.64" gradientTransform="translate(-1256.3 1430) rotate(180)" xlink:href="#linear-gradient-2"/><linearGradient id="linear-gradient-49" x1="-2883.95" y1="300.03" x2="-2869.65" y2="300.03" gradientTransform="translate(-1256.3 1430) rotate(180)" xlink:href="#linear-gradient-13"/><linearGradient id="linear-gradient-50" x1="-2812.53" y1="284.2" x2="-2757.19" y2="284.2" gradientTransform="translate(-1256.3 1430) rotate(180)" xlink:href="#linear-gradient-2"/><linearGradient id="linear-gradient-51" x1="-2811.69" y1="306.38" x2="-2797.46" y2="306.38" gradientTransform="translate(-1256.3 1430) rotate(180)" xlink:href="#linear-gradient-13"/><linearGradient id="linear-gradient-52" x1="-2892.84" y1="432.56" x2="-2795.86" y2="432.56" gradientTransform="translate(-1256.3 1430) rotate(180)" xlink:href="#linear-gradient-2"/><linearGradient id="linear-gradient-53" x1="1594.79" y1="502.02" x2="1615.16" y2="502.02" xlink:href="#linear-gradient-4"/><linearGradient id="linear-gradient-54" x1="-2677.64" y1="754.34" x2="-2706.58" y2="594.31" gradientTransform="translate(-1159.1 1539.1) rotate(176.1)" xlink:href="#linear-gradient-6"/><linearGradient id="linear-gradient-55" x1="-2661.08" y1="649.82" x2="-2608.22" y2="649.82" gradientTransform="translate(-1159.1 1539.1) rotate(176.1)" xlink:href="#linear-gradient-13"/><linearGradient id="linear-gradient-56" x1="-2777.13" y1="623.69" x2="-2806.07" y2="349.62" gradientTransform="translate(-1256.3 1430) rotate(180)" xlink:href="#linear-gradient-7"/><linearGradient id="linear-gradient-57" x1="1173.82" y1="459.68" x2="1278.82" y2="531.68" gradientTransform="matrix(1, 0, 0, -1, 0, 1430)" xlink:href="#linear-gradient-13"/><linearGradient id="linear-gradient-58" x1="1155.69" y1="486.13" x2="1260.69" y2="558.13" gradientTransform="matrix(1, 0, 0, -1, 0, 1430)" xlink:href="#linear-gradient-13"/><linearGradient id="linear-gradient-59" x1="-2725.31" y1="797.27" x2="-2835.95" y2="593.99" gradientTransform="translate(-1256.3 1430) rotate(180)" xlink:href="#linear-gradient-13"/><linearGradient id="linear-gradient-60" x1="-2245.99" y1="-196.62" x2="-2294.88" y2="-261.3" gradientTransform="matrix(-0.82, -0.58, 0.58, -0.82, -217.69, -785.72)" xlink:href="#linear-gradient-13"/><linearGradient id="linear-gradient-61" x1="1506.37" y1="818.46" x2="1511.83" y2="616.51" xlink:href="#linear-gradient-2"/><linearGradient id="linear-gradient-62" x1="-2317.6" y1="-247.85" x2="-2278.38" y2="-207.61" gradientTransform="matrix(-0.82, -0.58, 0.58, -0.82, -217.69, -785.72)" xlink:href="#linear-gradient-13"/></defs><title>Asset 1</title><g id="Layer_2" data-name="Layer 2"><g id="Layer_1-2" data-name="Layer 1"><g id="Illustration"><path class="cls-2" d="M1866.6,422.4c-100.5-54.5,26.2-184-17.3-280.1-8.1-17.9-23.9-40.5-78.7-67.7C1531.4-44,1161.1,14.4,1161.1,14.4c-313.8,49.4-355.2,126.1-493,76.5-76.8-27.7-138.6-78.5-260-83.7-38.9-1.6-110.6-4.7-181,28.6-195.7,92.5-284.7,420-187.5,592,30.6,54.3,67.7,62.7,74.8,120.7s-39,118.4-92,277.8c-83.4,251.3,242.8,429.2,526.2,272.8s244.3-172.7,619.8-9.1,647.4-32.8,884.3-210C2525,726.9,1994,491.4,1866.6,422.4Z"/><path class="cls-3" d="M830.6,1395.7s92.2-103.4,77.2-201.2-89.8-86.1-123.1-28.3-63.2,49.9-43.4-4.5,44.6-89.7,3.6-143.8-45.2-77.1-22.2-125.4S774.6,775.8,683,751.4,500.2,802,521.5,900.2s34.2,108.8,4.8,145.1-17.2,51.3-13,75-40.8,29.2-39.8-4.1,58.1-112,19.1-148.7-115.5-37.1-135.1,47.7,43.2,123,40,153.7-36.8-15.8-66.2,15.5,10.2,55.8,39.3,72.8,73,47.3,31.2,69.4-81.2,1-55.7,69.1Z"/><path class="cls-4" d="M641.1,822.2a49,49,0,0,0-8.2,5.1,61.4,61.4,0,0,0-7.1,6.3,73.8,73.8,0,0,0-11.3,15,85.5,85.5,0,0,0-10.4,34.9c-.2,1.5-.3,3-.4,4.5s-.1,3-.1,4.5v4.6l.3,4.5v2.3l.3,2.2.5,4.5c.5,3,.8,6,1.5,8.9s1.2,5.9,2,8.8l1.1,4.4,1.2,4.2,4.7,16.9c6.2,22.5,12.2,45.1,16.9,67.7s7.8,45.5,7.1,68a158.2,158.2,0,0,1-1.4,16.9,116.8,116.8,0,0,1-3.5,16.4,98,98,0,0,1-5.9,15.6,108.7,108.7,0,0,0-6.6,17.4,255.4,255.4,0,0,0-6.4,35.2c-1.4,11.7-2.5,23.3-3.3,34.9-1.8,23.3-3.3,46.4-7.1,69.3-.5,2.8-1,5.7-1.6,8.5s-1.2,5.7-1.8,8.5-1.5,5.6-2.2,8.4-.9,2.8-1.3,4.1-.9,2.8-1.4,4.2l-1.6,4c-.5,1.4-1.2,2.7-1.7,4s-2.6,5.3-4,7.9a70.1,70.1,0,0,1-10.8,14.2l1.1.9a76.5,76.5,0,0,0,12.3-13.8,102.6,102.6,0,0,0,8.7-15.9c4.9-11,8.1-22.5,10.8-34,5.3-23,7.8-46.4,10.7-69.5,1.4-11.5,2.7-23.1,4.5-34.5a236.1,236.1,0,0,1,7.2-33.6,122.2,122.2,0,0,1,6.2-15.5,102.7,102.7,0,0,0,7-17.3,124.2,124.2,0,0,0,4.2-17.8,156.7,156.7,0,0,0,1.8-18c1.1-24-2.2-47.6-6.7-70.8a695.1,695.1,0,0,0-17.7-68.5c-1.8-5.7-3.5-11.3-5.3-16.9l-1.4-4.2-1.2-4.1c-.9-2.7-1.6-5.4-2.3-8.2s-1.3-5.5-1.9-8.3l-.8-4.1-.6-4.2a105.4,105.4,0,0,1-1.1-16.8,85.1,85.1,0,0,1,1.5-16.7,79.4,79.4,0,0,1,4.9-16.2,61.1,61.1,0,0,1,3.8-7.7,65.4,65.4,0,0,1,4.8-7.3,58.8,58.8,0,0,1,12.7-12.7Z"/><path class="cls-5" d="M837.3,1172.5a482.2,482.2,0,0,1-11.4,54.4c-2.4,8.9-5,17.8-8,26.6-.7,2.2-1.5,4.4-2.2,6.6l-2.4,6.5c-1.6,4.4-3.3,8.7-5,13s-3.7,8.6-5.7,12.8-4,8.5-6.1,12.6c-4.3,8.3-8.9,16.5-14,24.4a232.3,232.3,0,0,1-16.6,23.1,261.7,261.7,0,0,1-19.7,21.2l1,1a183,183,0,0,0,22.5-19.5,236.1,236.1,0,0,0,18.6-22.7,260.7,260.7,0,0,0,15-24.6c2.2-4.3,4.4-8.5,6.4-12.9s3.8-8.7,5.6-13.1,3.5-8.8,5-13.2c.8-2.3,1.6-4.5,2.3-6.7s1.5-4.5,2.1-6.8c2.8-9,5.1-18.1,7.1-27.2,3.8-18.3,6.5-36.8,7-55.4Z"/><polygon class="cls-6" points="953.3 1033.8 917.7 1353.3 1330.9 1353.3 1277.1 1033.8 953.3 1033.8"/><path class="cls-7" d="M259.1,246.7V978.4a110.9,110.9,0,0,0,108.2,110.9c267.2,6.9,1201.8,23.6,1456.2,19.9a81.7,81.7,0,0,0,80.4-79.4c4.9-169.9,12.9-578.6-16.6-768.4a83.9,83.9,0,0,0-80.4-71.1C1583,183.1,592.3,160.4,338,166.1A80.7,80.7,0,0,0,259.1,246.7Z"/><path class="cls-8" d="M305,243.2V938.3a64.3,64.3,0,0,0,63.4,64.3l1418.5,17.5a62.6,62.6,0,0,0,63.5-62.3l2.4-688.9a45.9,45.9,0,0,0-44.7-46L355.8,193.6A49.6,49.6,0,0,0,305,243.2Z"/><path class="cls-9" d="M1861.1,1048.8h0L305,1022.3a2.1,2.1,0,0,1-2.1-2.2,2.1,2.1,0,0,1,2.1-2.2h.1l1556,26.6a2.2,2.2,0,0,1,2.2,2.2A2.1,2.1,0,0,1,1861.1,1048.8Z"/><path class="cls-10" d="M1420,1418.6H815.1c-16.4,0-28.7-11.7-25.6-24.2l7.8-30.7c2.3-9.3,12.5-16,24.6-16.4l583-18.2c12.6-.4,23.8,6.3,26.5,15.9l14,48.9C1449.1,1406.6,1436.7,1418.6,1420,1418.6Z"/><path class="cls-9" d="M1140.7,1355.8a2.2,2.2,0,1,1,0-4.3l25-.4a2.1,2.1,0,0,1,2.2,2.1,2.2,2.2,0,0,1-2.2,2.2l-24.9.4Z"/><path class="cls-9" d="M811.9,1401.9h-.3a2.2,2.2,0,0,1-1.8-2.5l3.5-22.3a25.3,25.3,0,0,1,24.5-21.2l265-3.9a2.3,2.3,0,0,1,2.2,2.2,2.1,2.1,0,0,1-2.1,2.2l-265,3.8a20.8,20.8,0,0,0-20.2,17.6l-3.6,22.3A2.3,2.3,0,0,1,811.9,1401.9Z"/><path class="cls-9" d="M805.6,526.6a32.1,32.1,0,0,0,3.1-64.2,32.1,32.1,0,0,0-3.1,64.2Z"/><path class="cls-9" d="M982.7,479.4l-7.9-39.1a2.9,2.9,0,0,0-2.3-2.2l-33-4.4a142.3,142.3,0,0,0-26.2-38.9l8.4-32.1a2.8,2.8,0,0,0-1.1-3l-33.2-22.1a2.9,2.9,0,0,0-3.2.1l-26.4,20.2a145.7,145.7,0,0,0-46-9l-16.9-28.6A2.6,2.6,0,0,0,792,319l-39,7.9a2.6,2.6,0,0,0-2.2,2.3l-4.4,32.9a146.9,146.9,0,0,0-38.9,26.2l-32.2-8.4a2.8,2.8,0,0,0-2.9,1.2l-22.1,33.2a2.9,2.9,0,0,0,.1,3.2l20.2,26.4a144.6,144.6,0,0,0-9,46l-28.7,16.8a2.6,2.6,0,0,0-1.2,2.9l7.8,39.1a2.8,2.8,0,0,0,2.4,2.1l32.9,4.4a142.8,142.8,0,0,0,26.2,39l-8.4,32.1a2.8,2.8,0,0,0,1.2,3l33.2,22a2.6,2.6,0,0,0,3.1-.1L756.5,631a145.9,145.9,0,0,0,46.1,9.1l16.8,28.6a2.8,2.8,0,0,0,2.9,1.3l39.1-7.9a2.7,2.7,0,0,0,2.1-2.3l4.4-32.9a146.9,146.9,0,0,0,38.9-26.2L939,609a2.8,2.8,0,0,0,3-1.1l22-33.2a2.9,2.9,0,0,0-.1-3.2l-20.2-26.4a145.2,145.2,0,0,0,9-46l28.7-16.8A2.8,2.8,0,0,0,982.7,479.4Zm-92.2,69.4a99.4,99.4,0,0,1-116,38.8l2.2-6.2a93.3,93.3,0,0,0,49.4,3.5,93,93,0,0,0,72.7-109.5,96.9,96.9,0,0,0-9.7-26.4,92.9,92.9,0,0,0-172.5,63.2c.4,1.9.8,3.7,1.3,5.5a97.8,97.8,0,0,0,3.1,9.6c0,.1.1.2.1.3l.5,1.2.9,2.3-5.9,2.6a93.2,93.2,0,0,1-6.4-20.2,99.6,99.6,0,0,1,49.5-106.8,93.7,93.7,0,0,1,9-4.4,103.1,103.1,0,0,1,19.3-6A99.4,99.4,0,0,1,890.5,548.8Zm-122-56.2a38.8,38.8,0,0,1,20.1-32,38,38,0,0,1,20.4-4.7,38.6,38.6,0,1,1-3.7,77.2,38.6,38.6,0,0,1-36.8-40.5Z"/><path class="cls-9" d="M537.5,703.1a19.1,19.1,0,0,0,10.5,1.1,19.5,19.5,0,0,0,14.7-26.9A19.5,19.5,0,0,0,537,667a19.6,19.6,0,0,0-10.2,25.7A18.9,18.9,0,0,0,537.5,703.1Z"/><path class="cls-9" d="M662,685.4l-19.9-10A95,95,0,0,0,634,645l12.3-18.6a2,2,0,0,0,0-2.2L630,603a1.8,1.8,0,0,0-2-.7l-21.2,7.1a95.1,95.1,0,0,0-27.3-15.8l-4.4-21.9a1.8,1.8,0,0,0-1.5-1.5L547,566.7a1.7,1.7,0,0,0-1.8,1l-10,19.9a101.1,101.1,0,0,0-30.5,8.1l-18.6-12.3a1.7,1.7,0,0,0-2.1.1l-21.3,16.2a1.8,1.8,0,0,0-.6,2l7,21.2a97.5,97.5,0,0,0-15.8,27.3l-21.9,4.4a1.8,1.8,0,0,0-1.4,1.5l-3.6,26.6a1.9,1.9,0,0,0,1,1.9l20,10a95.7,95.7,0,0,0,8.1,30.4l-12.4,18.6a1.8,1.8,0,0,0,.1,2.1L459.5,767a1.7,1.7,0,0,0,2,.6l21.2-7a96.9,96.9,0,0,0,27.2,15.8l4.4,21.9a1.9,1.9,0,0,0,1.6,1.4l26.5,3.6a1.8,1.8,0,0,0,1.9-1l10-20a95.6,95.6,0,0,0,30.5-8.1l18.6,12.4a1.8,1.8,0,0,0,2.1-.1l21.3-16.2a2,2,0,0,0,.6-2.1l-7-21.2a96.9,96.9,0,0,0,15.8-27.2l21.8-4.4a1.9,1.9,0,0,0,1.5-1.6l3.5-26.5A1.9,1.9,0,0,0,662,685.4Zm-48.6,8.4a68.8,68.8,0,0,1-111,44.8l5.2-6.7a60.4,60.4,0,0,0,97.5-39.2,62.1,62.1,0,0,0-.4-18.3,60.3,60.3,0,0,0-119.3,2.3,55.2,55.2,0,0,0-.4,12.2v.6l-8.4.7a64.9,64.9,0,0,1,.4-14.6,5,5,0,0,1,.2-1.2,69,69,0,0,1,56.3-57.6c2.3-.4,4.6-.6,6.9-.8h.1a64,64,0,0,1,13.8.5,68.4,68.4,0,0,1,59.1,77.3Zm-94.7-19.2a27.8,27.8,0,0,1,15-15.3,24,24,0,0,1,6.3-1.9,26.9,26.9,0,0,1,15.1,1.6,28,28,0,1,1-36.4,15.6Z"/><path class="cls-9" d="M1580.5,538.1l-5.5-27.4a2,2,0,0,0-1.7-1.5l-23-3.1a102.4,102.4,0,0,0-18.4-27.3l5.9-22.5a2,2,0,0,0-.8-2.1l-23.3-15.4a2,2,0,0,0-2.2,0L1493,453a100.1,100.1,0,0,0-32.2-6.3L1449,426.6a2,2,0,0,0-2.1-.9l-27.3,5.5a2,2,0,0,0-1.6,1.7l-3,23a100.8,100.8,0,0,0-27.3,18.4l-22.5-5.9a1.9,1.9,0,0,0-2.1.8l-15.5,23.3a2,2,0,0,0,.1,2.2l14.2,18.5a103,103,0,0,0-6.4,32.2l-20,11.8a2,2,0,0,0-.9,2.1l5.5,27.3a2.2,2.2,0,0,0,1.6,1.6l23.1,3a100.5,100.5,0,0,0,18.3,27.3l-5.8,22.5a1.9,1.9,0,0,0,.8,2.1l23.2,15.5a2.1,2.1,0,0,0,2.3-.1l18.5-14.2a102.4,102.4,0,0,0,32.2,6.4l11.8,20a1.8,1.8,0,0,0,2,.9l27.4-5.5a1.9,1.9,0,0,0,1.5-1.6l3.1-23.1a104.5,104.5,0,0,0,27.3-18.3l22.5,5.8a2,2,0,0,0,2.1-.8l15.4-23.3a1.8,1.8,0,0,0-.1-2.2l-14.1-18.5a99.6,99.6,0,0,0,6.3-32.2l20.1-11.8A1.8,1.8,0,0,0,1580.5,538.1Zm-62.8,49.8a71.7,71.7,0,0,1-83.7,28l2.9-8.3a63,63,0,0,0,82.7-71.9,62.7,62.7,0,0,0-74.2-49.2,62.9,62.9,0,0,0-49.2,74.2,65,65,0,0,0,3.7,12.1l.3.7-8.1,3.5a75,75,0,0,1-4.6-14.6c-.1-.4-.1-.8-.2-1.2a72,72,0,0,1,36-75.9c2.1-1.2,4.3-2.2,6.5-3.2h.1a67.3,67.3,0,0,1,13.8-4.3,71.8,71.8,0,0,1,74,110.1Zm-89.3-40.6a28.9,28.9,0,0,1,9.5-20.3,31.7,31.7,0,0,1,5.6-4,29.1,29.1,0,0,1,15.4-3.5,29.2,29.2,0,0,1,27.8,30.6,29.3,29.3,0,0,1-30.6,27.7,28.6,28.6,0,0,1-20.2-9.5A29,29,0,0,1,1428.4,547.3Z"/><path class="cls-9" d="M1456.6,569a19.5,19.5,0,0,0,10.7-2.5,20.5,20.5,0,0,0,10.6-16.9,19.8,19.8,0,0,0-5.3-14.6,20.3,20.3,0,0,0-28.8-1.4,19.8,19.8,0,0,0-6.6,14.1,20.5,20.5,0,0,0,5.2,14.7A20.2,20.2,0,0,0,1456.6,569Z"/><path class="cls-9" d="M1126.1,792.1c6.2,3.4,13.1,4.6,20.1,4.6h0c15.4,0,29.5-7.8,36.9-21.3a41.9,41.9,0,1,0-77.2-8A41.1,41.1,0,0,0,1126.1,792.1Z"/><path class="cls-9" d="M1367.8,783.2l-35.4-23.4a186.9,186.9,0,0,0-8.5-59.4l27.5-32.4a3.3,3.3,0,0,0,.4-4l-25.9-43.9a3.5,3.5,0,0,0-3.7-1.6l-41.7,8.5a183.6,183.6,0,0,0-47.9-36l-3.4-42.4a3.4,3.4,0,0,0-2.6-3.1l-49.3-12.7a3.7,3.7,0,0,0-3.8,1.5l-23.4,35.4a184.5,184.5,0,0,0-59.4,8.5l-32.3-27.6a3.6,3.6,0,0,0-4.1-.3l-43.9,25.9a3.6,3.6,0,0,0-1.6,3.7l8.5,41.6a185.8,185.8,0,0,0-36,48l-42.4,3.4a3.5,3.5,0,0,0-3.1,2.6l-12.7,49.3a3.7,3.7,0,0,0,1.5,3.8L960,752a184.9,184.9,0,0,0,8.5,59.4l-27.6,32.3a3.6,3.6,0,0,0-.3,4.1l25.9,43.8a3.6,3.6,0,0,0,3.7,1.7l41.6-8.5a185.8,185.8,0,0,0,48,36l3.4,42.3a3.3,3.3,0,0,0,2.6,3.1l49.3,12.7a3.5,3.5,0,0,0,3.8-1.4l23.4-35.5a184.8,184.8,0,0,0,59.4-8.4l32.3,27.5a3.6,3.6,0,0,0,4.1.4l43.8-25.9a3.6,3.6,0,0,0,1.7-3.7l-8.5-41.7a183.6,183.6,0,0,0,36-47.9l42.3-3.4a3.4,3.4,0,0,0,3.1-2.6l12.7-49.4A3.4,3.4,0,0,0,1367.8,783.2Zm-264.2-50.5a48.5,48.5,0,0,1,65.8-19.4,47.7,47.7,0,0,1,23.3,28.9,46.5,46.5,0,0,1-3.9,36.3c-8.5,15.7-24.9,24.8-42.6,24.8h0c-8.1,0-16.1-1.5-23.2-5.4a47.9,47.9,0,0,1-19.4-65.2ZM1268.9,788h0l.4.3h-.2l-.2-.4v-.4h0v.7a.6.6,0,0,1-.1.4v.2h0c0,.2-.1.3-.1.5h0l-.6.3c0,.1-.5.1-.5.1h.5c0,.1.9.1.9.1h.9c-13.3,54.8-66.2,90.4-123,90.4h-.1c-10.5,0-21.1,0-31.5-2.2h0c-55.8-13.3-94.8-64.3-94.8-121.8a124,124,0,0,1,4-31.4,126.1,126.1,0,0,1,33.5-58.2,3.2,3.2,0,0,1,4.6.1,3.4,3.4,0,0,1,0,4.6,119.5,119.5,0,0,0-31.8,55.3,117.4,117.4,0,0,0-3.8,29.4,118.7,118.7,0,0,0,89.9,115.3h.1l.8.6c9.8,2.5,19.6,4.5,30.6,4.5h0c55.2,0,101.1-36.7,114.9-89.3h-.3c0-.1-.2-.1-.2-.1v.7h0l.3-.4a4.9,4.9,0,0,1,.3-.7h0a137.3,137.3,0,0,0,3.6-29.9,119.8,119.8,0,0,0-90.1-115.9,126.7,126.7,0,0,0-25.2-3.7,3.3,3.3,0,0,1-3.1-3.3h0c2.3-1.8,1.5-3.2,3.3-3.1A126.3,126.3,0,0,1,1273,756.6,124.2,124.2,0,0,1,1268.9,788Z"/><path class="cls-11" d="M323.5,792.3H204.9a41,41,0,0,0-35.7,20.6L109.9,915.6a41,41,0,0,0,0,41.2l59.3,102.7a41,41,0,0,0,35.7,20.6H323.5a41.2,41.2,0,0,0,35.7-20.6l59.3-102.7a41.5,41.5,0,0,0,0-41.2L359.2,812.9A41.2,41.2,0,0,0,323.5,792.3Z"/><path class="cls-12" d="M204.9,1060.4a21.5,21.5,0,0,1-18.6-10.7L126.9,947a21.7,21.7,0,0,1,0-21.5l59.4-102.8A21.5,21.5,0,0,1,204.9,812H323.5a21.6,21.6,0,0,1,18.6,10.7l59.3,102.8a21.7,21.7,0,0,1,0,21.5l-59.3,102.7a21.6,21.6,0,0,1-18.6,10.7Z"/><g class="cls-13"><path class="cls-14" d="M264.2,938.6c-22,0-38.4-23-38.4-43.6s16.5-36.3,38.4-36.3,38.3,15.6,38.3,36.3S286.1,938.6,264.2,938.6Zm0-73.4c-18.1,0-31.8,12.8-31.8,29.8s13.9,37.1,31.8,37.1S296,912.2,296,895,282.3,865.2,264.2,865.2Z"/><path class="cls-14" d="M306.3,1013.2H220.7a24,24,0,0,1-23.2-17.7l-3.6-13.1a24,24,0,0,1,15.4-29c20.3-6.7,40-10.1,58.7-10.1a149,149,0,0,1,51.3,9,23.9,23.9,0,0,1,14.5,29.8l-4.7,14.4A23.7,23.7,0,0,1,306.3,1013.2ZM268,949.8c-18,0-37,3.3-56.6,9.8a17.3,17.3,0,0,0-11.1,21.1l3.5,13.1a17.6,17.6,0,0,0,16.9,12.9h85.6a17.4,17.4,0,0,0,16.6-12.2l4.6-14.4A17.3,17.3,0,0,0,317,958.4,142.8,142.8,0,0,0,268,949.8Z"/></g><path class="cls-15" d="M325.4,99.4H206.8A41.2,41.2,0,0,0,171.1,120L111.8,222.7a41,41,0,0,0,0,41.2l59.3,102.7a41.2,41.2,0,0,0,35.7,20.6H325.4a41.2,41.2,0,0,0,35.7-20.6l59.3-102.7a41.5,41.5,0,0,0,0-41.2L361.1,120A41.2,41.2,0,0,0,325.4,99.4Z"/><path class="cls-16" d="M206.8,367.5a21.5,21.5,0,0,1-18.6-10.7L128.9,254a21.2,21.2,0,0,1,0-21.5l59.3-102.7a21.5,21.5,0,0,1,18.6-10.7H325.4A21.6,21.6,0,0,1,344,129.8l59.3,102.7a21.7,21.7,0,0,1,0,21.5L344,356.8a21.6,21.6,0,0,1-18.6,10.7Z"/><g class="cls-17"><path class="cls-14" d="M299.5,318.5h0a4.9,4.9,0,0,1-2.5-.6c-3.5-1.4-5.2-3.8-5.2-6.6V295.6H203.9c-9.7,0-18-11.4-18-21.1V199.3c0-10.6,9.1-16.3,19.1-16.3H327.1c10.2,0,17.7,6.1,17.7,16.3v75.2a17.2,17.2,0,0,1-15.4,17.3l-24,24.5A8.8,8.8,0,0,1,299.5,318.5ZM205,189.6c-5,0-10.3,4.5-10.3,9.7v75.2c0,4.8,4.5,10,9.2,10h91.5c2.4,0,5.3,2.9,5.3,5.3v19.4l23.4-24.6a5.2,5.2,0,0,1,3.5-1.4,8.4,8.4,0,0,0,8.4-8.7V199.3c0-5.4-3.6-9.7-8.9-9.7Z"/></g><path class="cls-14" d="M320.5,213.1a2.9,2.9,0,0,1-3,3h-111a3,3,0,0,1-3-3v-.6a3,3,0,0,1,3-3h111a2.9,2.9,0,0,1,3,3Z"/><path class="cls-14" d="M320.5,233a3,3,0,0,1-3,3h-111a3.1,3.1,0,0,1-3-3v-.6a3,3,0,0,1,3-3h111a2.9,2.9,0,0,1,3,3Z"/><path class="cls-14" d="M320.5,257.3a3,3,0,0,1-3,3h-111a3.1,3.1,0,0,1-3-3v-.7a3.1,3.1,0,0,1,3-3h111a3,3,0,0,1,3,3Z"/><path class="cls-18" d="M325.4,443.4H206.8A41.2,41.2,0,0,0,171.1,464L111.8,566.7a41,41,0,0,0,0,41.2l59.3,102.8a41.3,41.3,0,0,0,35.7,20.5H325.4a41.3,41.3,0,0,0,35.7-20.5l59.3-102.8a41.5,41.5,0,0,0,0-41.2L361.1,464A41.2,41.2,0,0,0,325.4,443.4Z"/><path class="cls-19" d="M206.8,711.5a21.5,21.5,0,0,1-18.6-10.7L128.9,598.1a21.2,21.2,0,0,1,0-21.5l59.3-102.7a21.3,21.3,0,0,1,18.6-10.8H325.4A21.6,21.6,0,0,1,344,473.8l59.3,102.8a21.7,21.7,0,0,1,0,21.5L344,700.8a21.6,21.6,0,0,1-18.6,10.7Z"/><g class="cls-20"><path class="cls-14" d="M266.6,658.7H263c-42.1-1.9-74.9-35.3-73.2-74.6.9-19.1,9.6-36.7,24.7-49.6a78.8,78.8,0,0,1,54.7-18.3c42,1.8,74.9,35.3,73.1,74.6h0c-.8,19.1-9.6,36.7-24.6,49.5A78.4,78.4,0,0,1,266.6,658.7ZM265.5,526A68.7,68.7,0,0,0,221,542.1c-12.9,11-20.4,26-21.1,42.3-1.5,33.8,27,62.5,63.5,64.1a68.8,68.8,0,0,0,47.7-15.9c13-11.1,20.5-26.1,21.2-42.4,1.5-33.7-27-62.5-63.5-64.1Z"/><path class="cls-14" d="M284.3,587.6a195.3,195.3,0,0,1-2.9,35c-.5,2.9-1.1,5.7-1.8,8.6s-1.6,5.6-2.6,8.4a40.9,40.9,0,0,1-3.8,7.9,18.7,18.7,0,0,1-2.9,3.4,12.2,12.2,0,0,1-1.9,1.2,5.4,5.4,0,0,1-2.2.5,5.7,5.7,0,0,1-2.2-.4,7.6,7.6,0,0,1-1.9-1.2,15.7,15.7,0,0,1-3-3.3,41.5,41.5,0,0,1-3.9-7.9,74.4,74.4,0,0,1-2.5-8.4,86.4,86.4,0,0,1-1.9-8.5,146.8,146.8,0,0,1-2.2-17.5c-.5-5.8-.8-11.6-.8-17.5,0-2.9.1-5.8.2-8.8s.2-5.8.5-8.7a168.4,168.4,0,0,1,2-17.4c.5-2.9,1-5.8,1.7-8.6s1.5-5.7,2.4-8.5,1.1-2.7,1.7-4.1a28.2,28.2,0,0,1,2.1-3.8,15.4,15.4,0,0,1,2.8-3.4,11.8,11.8,0,0,1,1.9-1.1,5.7,5.7,0,0,1,2.2-.4,5.4,5.4,0,0,1,2.2.5,7.6,7.6,0,0,1,1.9,1.2,15.3,15.3,0,0,1,2.9,3.3,35.9,35.9,0,0,1,4,7.8,80.9,80.9,0,0,1,2.8,8.3c.8,2.8,1.4,5.7,2,8.5A185.7,185.7,0,0,1,284.3,587.6Zm-.9,0c0-5.8-.2-11.6-.7-17.4a166.9,166.9,0,0,0-2.2-17.3c-.6-2.9-1.2-5.8-1.9-8.6a80.4,80.4,0,0,0-2.7-8.3,37.1,37.1,0,0,0-3.9-7.7,14.8,14.8,0,0,0-2.8-3.3l-1.8-1.1a5.4,5.4,0,0,0-2.1-.5,5.1,5.1,0,0,0-2.1.3,9.4,9.4,0,0,0-1.8,1.2,10.9,10.9,0,0,0-2.7,3.3,28.2,28.2,0,0,0-2.1,3.8,28.6,28.6,0,0,0-1.5,4.1,74.1,74.1,0,0,0-2.4,8.4c-.6,2.8-1.1,5.7-1.6,8.6a166.2,166.2,0,0,0-1.8,17.3c-.4,5.9-.5,11.7-.5,17.5s.2,11.7.6,17.5a166.7,166.7,0,0,0,2.1,17.3c.5,2.9,1.1,5.8,1.8,8.6a79.3,79.3,0,0,0,2.5,8.3,37.5,37.5,0,0,0,3.8,7.8,14.8,14.8,0,0,0,2.8,3.3,5.2,5.2,0,0,0,1.8,1,3.4,3.4,0,0,0,2,.4,4.6,4.6,0,0,0,2-.5,7.8,7.8,0,0,0,1.8-1.1,12.2,12.2,0,0,0,2.7-3.3,37.5,37.5,0,0,0,3.8-7.8q1.3-4.2,2.4-8.4c.7-2.8,1.3-5.7,1.8-8.5a172,172,0,0,0,2.1-17.4C283.2,599.3,283.4,593.5,283.4,587.6Z"/><path class="cls-14" d="M266.1,654.3a8.1,8.1,0,0,1-2.7-.5,14.9,14.9,0,0,1-2.4-1.4,20.5,20.5,0,0,1-3.3-3.7,37.8,37.8,0,0,1-4-8.3,77.5,77.5,0,0,1-2.7-8.5c-.7-2.8-1.3-5.6-1.9-8.7-1-5.6-1.7-11.3-2.2-17.6s-.8-11.7-.8-17.7c0-3.1.1-6.2.2-8.8s.3-6,.5-8.8a174.7,174.7,0,0,1,2-17.6,88.5,88.5,0,0,1,1.8-8.7,69.7,69.7,0,0,1,2.4-8.6c.6-1.6,1.1-3,1.7-4.3s1.5-2.9,2.2-4.1a15.2,15.2,0,0,1,3.3-3.7,7.9,7.9,0,0,1,2.3-1.4,7.1,7.1,0,0,1,2.9-.5,7.4,7.4,0,0,1,2.8.6,14.3,14.3,0,0,1,2.2,1.5,14.6,14.6,0,0,1,3.3,3.6,46.5,46.5,0,0,1,4.2,8.1,77,77,0,0,1,2.8,8.5c.8,2.8,1.4,5.6,2.1,8.7a184.2,184.2,0,0,1,3.2,35.2h0a203.3,203.3,0,0,1-2.9,35.3c-.6,3.1-1.2,5.9-1.9,8.7a73.6,73.6,0,0,1-2.6,8.6,39.2,39.2,0,0,1-4,8.2,21.3,21.3,0,0,1-3.2,3.8,9.5,9.5,0,0,1-2.3,1.4,5.8,5.8,0,0,1-2.8.7Zm-.9-129.2a2.7,2.7,0,0,0-1.3.2,5.5,5.5,0,0,0-1.4.9,12.3,12.3,0,0,0-2.4,2.9,20.1,20.1,0,0,0-1.9,3.6q-.7,1.8-1.5,3.9a70,70,0,0,0-2.3,8.3c-.6,2.6-1.1,5.4-1.6,8.4-.8,5.4-1.4,11-1.8,17.2s-.5,11-.5,17.4.2,11.7.6,17.4a170.1,170.1,0,0,0,2.1,17.1c.5,3,1.1,5.8,1.7,8.5s1.6,5.7,2.5,8.1a35,35,0,0,0,3.6,7.5,13.9,13.9,0,0,0,2.4,2.8l1.4.9a3.4,3.4,0,0,0,1.4.2,3.1,3.1,0,0,0,1.3-.3,5.5,5.5,0,0,0,1.4-.9,14.8,14.8,0,0,0,2.4-2.9,40.6,40.6,0,0,0,3.6-7.5c.8-2.5,1.6-5.2,2.4-8.2s1.2-5.4,1.7-8.4a168.6,168.6,0,0,0,2.1-17.2c.4-5.6.6-11.5.6-17.4h0c0-5.8-.2-11.7-.7-17.3a162.1,162.1,0,0,0-2.2-17.1c-.6-3-1.2-5.8-1.9-8.4a66.2,66.2,0,0,0-2.6-8.2,42.4,42.4,0,0,0-3.7-7.4,19.4,19.4,0,0,0-2.5-2.9l-1.4-.9-1.4-.3Z"/><path class="cls-14" d="M313.7,587.6a88.9,88.9,0,0,1-3,22.4,75.4,75.4,0,0,1-9.3,20.4,53.2,53.2,0,0,1-15.9,15.9,39,39,0,0,1-10.2,4.6,37.8,37.8,0,0,1-11.1,1.7,38.3,38.3,0,0,1-11.1-1.7,39,39,0,0,1-10.2-4.6,49.8,49.8,0,0,1-8.8-7.1,65.8,65.8,0,0,1-7.1-8.7,71.6,71.6,0,0,1-9.3-20.5,80.9,80.9,0,0,1-2.3-11.1,90.8,90.8,0,0,1,0-22.5,80.9,80.9,0,0,1,2.3-11.1,74.4,74.4,0,0,1,9.3-20.5,59.4,59.4,0,0,1,7.2-8.7,45.3,45.3,0,0,1,8.7-7,42.9,42.9,0,0,1,10.2-4.7,38.3,38.3,0,0,1,11.1-1.7,37.8,37.8,0,0,1,11.1,1.7,42.9,42.9,0,0,1,10.2,4.7,49.4,49.4,0,0,1,8.7,7,54.7,54.7,0,0,1,7.1,8.8,72.7,72.7,0,0,1,9.4,20.4A88.7,88.7,0,0,1,313.7,587.6Zm-1,0a81.6,81.6,0,0,0-2.9-22,73,73,0,0,0-9-20.4,58,58,0,0,0-7-8.7,44.5,44.5,0,0,0-8.5-7.1,39.9,39.9,0,0,0-10.1-4.6,36.4,36.4,0,0,0-22,0,41.5,41.5,0,0,0-10,4.7,48.7,48.7,0,0,0-8.6,7,57.3,57.3,0,0,0-6.9,8.7,70.2,70.2,0,0,0-9,20.4,80.9,80.9,0,0,0-2.2,10.9,89.2,89.2,0,0,0,0,22.3,80.9,80.9,0,0,0,2.2,10.9,68.5,68.5,0,0,0,9,20.3,52.8,52.8,0,0,0,6.9,8.7,48.5,48.5,0,0,0,8.6,7.1,40.5,40.5,0,0,0,10.1,4.7,39.9,39.9,0,0,0,10.9,1.6,37.7,37.7,0,0,0,21-6.3,45.1,45.1,0,0,0,8.6-7.1,59.3,59.3,0,0,0,7-8.7,74,74,0,0,0,9-20.3A82.3,82.3,0,0,0,312.7,587.6Z"/><path class="cls-14" d="M264.2,654.3a41.7,41.7,0,0,1-11.6-1.7,46,46,0,0,1-10.6-4.9,52,52,0,0,1-9.1-7.3,65.1,65.1,0,0,1-7.3-9,73.8,73.8,0,0,1-9.6-20.9,85.2,85.2,0,0,1-2.3-11.4,86.6,86.6,0,0,1-.7-11.5,88.8,88.8,0,0,1,.7-11.5,87.3,87.3,0,0,1,2.4-11.3,72.4,72.4,0,0,1,9.5-20.9,59.1,59.1,0,0,1,7.4-9,51.4,51.4,0,0,1,9-7.3,45.6,45.6,0,0,1,10.6-4.8,38.3,38.3,0,0,1,23.2,0,43.8,43.8,0,0,1,10.6,4.8,51.4,51.4,0,0,1,9,7.3,58.6,58.6,0,0,1,7.3,9,73.2,73.2,0,0,1,9.6,21,88.8,88.8,0,0,1,3.1,22.7h0a89.5,89.5,0,0,1-3.1,22.7,75.8,75.8,0,0,1-9.5,21,65.1,65.1,0,0,1-7.3,9,52,52,0,0,1-9.1,7.3,44.2,44.2,0,0,1-10.6,4.9A41.7,41.7,0,0,1,264.2,654.3Zm0-129.5a37.1,37.1,0,0,0-20.1,6.1,43.4,43.4,0,0,0-8.3,6.8,57.1,57.1,0,0,0-6.7,8.5,69.8,69.8,0,0,0-8.8,19.8,88.1,88.1,0,0,0-2.1,10.7,79.8,79.8,0,0,0-.7,10.9,77.8,77.8,0,0,0,.7,10.9,86.1,86.1,0,0,0,2.1,10.8,71.1,71.1,0,0,0,8.8,19.8,56.1,56.1,0,0,0,6.7,8.4,46.7,46.7,0,0,0,8.3,6.8,38,38,0,0,0,9.6,4.5,35.3,35.3,0,0,0,21,0,41.4,41.4,0,0,0,9.6-4.4,48.3,48.3,0,0,0,8.3-6.9,56.7,56.7,0,0,0,6.8-8.4,72.7,72.7,0,0,0,8.8-19.8,85.1,85.1,0,0,0,0-43.3,69.8,69.8,0,0,0-8.8-19.8,57.6,57.6,0,0,0-6.8-8.5,43.4,43.4,0,0,0-8.3-6.8,36.5,36.5,0,0,0-9.6-4.5A34.3,34.3,0,0,0,264.2,524.8Z"/><path class="cls-14" d="M206.5,561.9h104l14.8.2h0l-14.8.2h-104a.1.1,0,1,1,0-.2Z"/><polygon class="cls-14" points="265.9 564 221.3 563.9 205.7 563.8 204.7 562.7 204.7 562 204.7 560.3 206.5 560.2 236.2 560 265.9 560 310.5 560.1 327 560.3 327.1 563.7 325.3 563.8 295.6 564 265.9 564"/><path class="cls-14" d="M223.7,537l10.6-.2h63.3l10.5.2H223.7a.1.1,0,0,1-.1-.1Z"/><path class="cls-14" d="M265.9,539H222v-3.5h44l35.5.2h8.5v3.4H265.9Z"/><path class="cls-14" d="M201.3,586.9H330.5l-16.1.2H201.3Z"/><polygon class="cls-14" points="265.9 589 217.4 588.9 199.6 588.7 199.5 585.3 201.3 585.2 233.6 585 265.9 585 314.4 585.1 331.2 585.2 332.3 586.3 332.2 588.7 330.5 588.7 298.2 588.9 265.9 589"/><path class="cls-14" d="M206.5,611.9H325.4c0,.1,0,.1-.1.1h-104l-14.8-.2h-.1C206.4,611.9,206.4,611.9,206.5,611.9Z"/><polygon class="cls-14" points="265.9 614 221.3 613.9 205.7 613.7 204.7 612.7 204.7 611.9 204.7 610.3 206.5 610.2 236.2 610 265.9 610 310.5 610.1 327 610.2 327.1 613.7 325.3 613.7 295.6 613.9 265.9 614"/><path class="cls-14" d="M310.2,637.2H225.8a.2.2,0,0,1-.2-.2c0-.2.1-.3.2-.3h84.4a.3.3,0,0,1,.3.3C310.5,637.1,310.4,637.2,310.2,637.2Z"/><path class="cls-14" d="M310.2,638.9H225.8a2,2,0,0,1-1.9-1.9,2,2,0,0,1,1.9-2h84.4a2,2,0,1,1,0,3.9Z"/></g><path class="cls-21" d="M591.6,915.7s-11.1,5.4-13.2,11.7-14,5.6-15.2,15.5a11.5,11.5,0,0,1-9.5,9.9c-12.6,1.9-32,8.5-35.2,30.4-2.3,16.7,6.2,23.1,15.1,25.2,6.6,1.7,11,8.1,9.6,14.7s.7,13.7,11.7,19.5c24.7,13.1,49.4-30.9,49.4-30.9l5-76.6Z"/><path class="cls-22" d="M707.9,875.2S676.1,961.9,622,989c0,0,18,29.4,27.4,31.2,0,0,57.8-74.1,63.7-134.7Z"/><path class="cls-23" d="M490.1,1396.5l-1.6,13.1a5.3,5.3,0,0,1-4.8,4.7,82.4,82.4,0,0,1-17.6.3,4.7,4.7,0,0,1-3.9-6c1.7-5.1,4.6-12.7,8.9-17.2h14.5A4.6,4.6,0,0,1,490.1,1396.5Z"/><path class="cls-24" d="M604.3,1242.5l2.4,14.5s-8.2,83.5-9.7,116.8a26.1,26.1,0,0,0,3.9,14.9l14.3,23.3-36.4-21.5-.7-4.5,5.9-8.2-7.8-93.5a29,29,0,0,1,3.3-15.8l7.5-14.2Z"/><path class="cls-25" d="M617.6,1415.3H606a7.2,7.2,0,0,1-5.6-2.7c-3.6-4.7-11.1-13.9-14.7-14.1s-4.2,16.8-4.2,16.8h-2.7l-3.4-21.3a12.6,12.6,0,0,1,6.6-13.2h0s1.1,8.2,7.1,11.8,24.4,16.5,24.4,16.5a17.9,17.9,0,0,1,4.7.1C621.9,1409.9,621.3,1415.3,617.6,1415.3Z"/><path class="cls-26" d="M554.4,1249.4s-48.3,91.6-55.9,112.5-10.4,38.3-10.5,40-3.4,5-12.2,5c-4.6,0-6.8-1.8-7.9-3.6a5,5,0,0,1-.2-5c2.8-5.6,11.6-23.7,14.9-31.9,3.9-9.8,12.4-54.1,17-69.5s9.8-32.1,30-47.5C529.6,1249.4,543.4,1235.9,554.4,1249.4Z"/><path class="cls-27" d="M584.9,1099.4c12.4-52.8-19.1-82.6-19.1-82.6C585.7,997.7,622,989,622,989s34.6,25.3,30.5,45.1c-2.5,11.6-24.4,69.5-24.4,69.5S607.9,1113.2,584.9,1099.4Z"/><path class="cls-28" d="M557.3,1125.5c5-15.3,27.6-26.1,27.6-26.1,23,13.8,43.2,4.2,43.2,4.2s4.6,17.4,1.4,33.5S606.7,1257,606.7,1257c-31,6.3-78.7-6.3-78.7-6.3C547.8,1215.6,552.2,1140.8,557.3,1125.5Z"/><path class="cls-29" d="M599.3,954.1l-10.1,45.5c-1,4,2.7,3.3,6.7,2.6,6.7-1.3,15.2-3.9,18.1-9a4.8,4.8,0,0,0,.5-1.7l4.3-31.6a5.5,5.5,0,0,0-3.3-5.9l-8.4-3.7A5.7,5.7,0,0,0,599.3,954.1Z"/><path class="cls-30" d="M565.8,1016.8s-70.7,50.5-9,103.6a15.5,15.5,0,0,0,6.9,4.1c2.4.7,9.3,5.9,12.8,8.6a2.4,2.4,0,0,0,3.5-.6h0a3.6,3.6,0,0,0,.2-3.2l-8.8-18.5a6.8,6.8,0,0,0-8.8-.3h0a3.3,3.3,0,0,1-5-1.2c-4.8-9.7-13.8-38.2,23.1-70.4a4.1,4.1,0,0,0,.8-4.9C579,1029,573,1019.2,565.8,1016.8Z"/><path class="cls-31" d="M611.2,910.8s12,5.1,20.2,22.4,2,25.3-5.6,26.4-19.1,1-31.2-10.2S595.6,904.8,611.2,910.8Z"/><path class="cls-32" d="M602.7,940.1s-9-25.3,13.5-25.6l5.2,3.7s8.3-14.1-5.2-20.8-29.4-1.2-35.2,17.1-6.7,30.4,2.9,39.1,13.5-1.1,13.5-1.1-5.2-8.2-3.1-12.6,7,.9,7,.9Z"/><path class="cls-33" d="M600.2,942.9s-4.6-13-10.7-7.8,5,12,9.3,14.3Z"/><path class="cls-34" d="M711,891c.4,1.6-5.2,3.9-8.5-2.4-.1-3-1.9-16-.1-18.4,9.6-13.1,28.2-29.6,28.2-29.6a4.5,4.5,0,0,1,.6,6.2l-9.1,9.4c1.9,3.4,4.2,6.3,5.3,10.4a13.3,13.3,0,0,1-1.2,9.4c-1.6,2.8-3.8,6.6-5.8,9.5A12.4,12.4,0,0,1,711,891Z"/><path class="cls-35" d="M715.8,884.6l-2.2-.4c.3-1.4,2.6-14.1,4.5-17.1a4.4,4.4,0,0,0,.8-2.7,1.9,1.9,0,0,0-.6-.7l-7.4,6.3-2.5,6.6-2.1-.7,2.7-7.2,9-7.7.7.4a4,4,0,0,1,2.3,2.5,5.5,5.5,0,0,1-1.1,4.3C718.5,870.5,716.5,880.8,715.8,884.6Z"/><path class="cls-9" d="M1760,1404.4c62.5,11.8,142.4-52.6,168.1-123,26.4-72.4-22.1-102.7-21.7-203.1.4-114.2,63.2-131.4,104.8-285.2,9.4-34.7,63.6-235.5-3.6-273.2-62.2-34.8-236.8,65.1-267.4,193-21.9,91.1,45.6,129.4,19.8,235.6-22.6,93.2-82,94.5-104.8,184.4C1627.5,1242.3,1678,1388.9,1760,1404.4Z"/><path class="cls-3" d="M1764.6,1432c-16.9-122.9,16-312.6,46.5-450.1,33.1-148.8,70.6-270.2,71-271.4l5.2,1.4c-.4,1.2-37.8,122.4-70.9,271.1-30.4,137.1-63.2,326.1-46.4,448.4Z"/><path class="cls-3" d="M1803.6,1406.5c-58.9-29-79.1-128.6-45.6-161,22.7-21.9,55.1,1.1,86.4-21.6,40-28.9,10.6-83.4,42-154.2,26.8-60.1,90.9-117.1,128.4-105.4,39.3,12.2,59.9,103,26.4,157.6-21.8,35.5-55.1,37.3-62.4,70.3-8.4,38.3,32.2,55.8,32.4,93C2011.6,1351.9,1881.6,1444.9,1803.6,1406.5Z"/><path class="cls-9" d="M1835.4,1432l-1-.2a2.2,2.2,0,0,1-1.1-3c78.1-152.2,101-328.6,101.2-330.4a2.4,2.4,0,0,1,2.7-1.9,2.3,2.3,0,0,1,2.1,2.5c-.3,1.7-23.3,179-101.7,331.7A2.5,2.5,0,0,1,1835.4,1432Z"/><path class="cls-36" d="M1995.7,1144.1a.8.8,0,0,1-.7-.2,1,1,0,0,1-.2-1.5c24.6-29.9,52-74.9,42.1-119.1-5.8-26.3-22.3-40-22.5-40.2a1,1,0,0,1-.1-1.5,1.1,1.1,0,0,1,1.6-.1c.7.6,17.3,14.3,23.3,41.4,5.5,24.8,2.6,66-42.6,120.8A1.1,1.1,0,0,1,1995.7,1144.1Z"/><path class="cls-36" d="M1798.3,1393.2a.9.9,0,0,1-.9-.5c-37.9-52.2-50.8-92.6-38.4-120,11-24.3,38.8-28.8,39.1-28.9a1.1,1.1,0,0,1,1.3.9,1.1,1.1,0,0,1-.9,1.3c-.3,0-26.9,4.4-37.4,27.6-12.1,26.7.8,66.3,38.2,117.9a1.1,1.1,0,0,1-.3,1.5A1,1,0,0,1,1798.3,1393.2Z"/><path class="cls-37" d="M768.7,482.4v321c0,23.6,20.8,42.8,46.4,42.8h539c25.6,0,46.3-19.2,46.3-42.8v-321Z"/><path class="cls-38" d="M1242.2,386.8l-137-82.9a40.6,40.6,0,0,0-42.5,0l-137,82.9L767.4,482.5,925.7,578l158.2,95.5,158.3-95.6,158.2-95.4Z"/><g class="cls-39"><path class="cls-14" d="M1301.7,121.3h-489c-7.8,0-13.1,7.6-13.1,15.4V730.5h569.5V188.4Z"/><path class="cls-3" d="M1301.7,121.3l1.2,61.7c0,1.6,0,3.1,1.2,4.2a5,5,0,0,0,3.9,1.8l61.1-.6Z"/><path class="cls-3" d="M967.3,237.4a5.2,5.2,0,0,1-5.2,5.2h-122a5.2,5.2,0,0,1-5.2-5.2v-.6a5.2,5.2,0,0,1,5.2-5.2h122a5.2,5.2,0,0,1,5.2,5.2Z"/><path class="cls-3" d="M967.3,263.9a5.2,5.2,0,0,1-5.2,5.2h-122a5.2,5.2,0,0,1-5.2-5.2v-.6a5.2,5.2,0,0,1,5.2-5.2h122a5.2,5.2,0,0,1,5.2,5.2Z"/><path class="cls-3" d="M967.3,286a5.2,5.2,0,0,1-5.2,5.2h-122a5.2,5.2,0,0,1-5.2-5.2v-.7a5.2,5.2,0,0,1,5.2-5.2h122a5.2,5.2,0,0,1,5.2,5.2Z"/><path class="cls-3" d="M1333.8,348.1a7.1,7.1,0,0,1-7.1,7.1H901.6a7.1,7.1,0,0,1-7.1-7.1v-1.3a7.1,7.1,0,0,1,7.1-7.1h425.1a7.1,7.1,0,0,1,7.1,7.1Z"/><path class="cls-3" d="M1336,396.4a7.3,7.3,0,0,1-7.3,7.3H851a7.3,7.3,0,0,1-7.3-7.3v-.8a7.3,7.3,0,0,1,7.3-7.3h477.7a7.3,7.3,0,0,1,7.3,7.3Z"/><path class="cls-3" d="M1336,447.2a7.3,7.3,0,0,1-7.3,7.3H851a7.3,7.3,0,0,1-7.3-7.3v-.8a7.3,7.3,0,0,1,7.3-7.3h477.7a7.3,7.3,0,0,1,7.3,7.3Z"/><path class="cls-3" d="M1336,498a7.3,7.3,0,0,1-7.3,7.3H851a7.3,7.3,0,0,1-7.3-7.3v-.9a7.3,7.3,0,0,1,7.3-7.3h477.7a7.3,7.3,0,0,1,7.3,7.3Z"/><path class="cls-3" d="M1336,548.8a7.3,7.3,0,0,1-7.3,7.3H851a7.3,7.3,0,0,1-7.3-7.3v-.9a7.3,7.3,0,0,1,7.3-7.3h477.7a7.3,7.3,0,0,1,7.3,7.3Z"/><path class="cls-3" d="M1336,599.5a7.3,7.3,0,0,1-7.3,7.3H851a7.3,7.3,0,0,1-7.3-7.3v-.8a7.3,7.3,0,0,1,7.3-7.3h477.7a7.3,7.3,0,0,1,7.3,7.3Z"/><path class="cls-3" d="M1336,650.3a7.3,7.3,0,0,1-7.3,7.3H851a7.3,7.3,0,0,1-7.3-7.3v-.8a7.3,7.3,0,0,1,7.3-7.3h477.7a7.3,7.3,0,0,1,7.3,7.3Z"/></g><circle class="cls-40" cx="1861.7" cy="279.3" r="179.2"/><circle class="cls-41" cx="1861.7" cy="279.3" r="173.2"/><path class="cls-42" d="M1718.9,209.2l-.9-.2a1.9,1.9,0,0,1-.8-2.6,161.1,161.1,0,0,1,144.5-89,157.8,157.8,0,0,1,29.2,2.7,1.9,1.9,0,0,1,1.5,2.2,1.8,1.8,0,0,1-2.2,1.5,159,159,0,0,0-28.5-2.5,157.2,157.2,0,0,0-141.1,86.9A1.9,1.9,0,0,1,1718.9,209.2Z"/><circle class="cls-42" cx="1865.5" cy="283" r="146.6" transform="translate(346.2 1402) rotate(-45)"/><path class="cls-43" d="M1851.1,392V376.1c-16.6-.7-33.1-4.6-44.7-9.7a9.2,9.2,0,0,1-5.1-10.9l4-14.9a9.3,9.3,0,0,1,12.6-6.1,107.4,107.4,0,0,0,41.4,8.7c16,0,27.9-5.4,27.9-16.5s-9.2-16.1-31.5-22c-31.7-8.7-54.5-22.6-54.5-50.5,0-25.3,18.4-44.5,50.5-49.7V188.6a9.2,9.2,0,0,1,9.2-9.3h9.4a9.2,9.2,0,0,1,9.3,9.3v14.3c15.4.6,26.6,3.2,35.5,6.4a9.3,9.3,0,0,1,5.8,11.1l-3.8,13.8a9.2,9.2,0,0,1-12.2,6.2,96.5,96.5,0,0,0-34.8-6.3c-19,0-24.4,7.9-24.4,14.9,0,8.7,11.4,14.7,36.1,22.3,35.3,10.6,49.9,25.2,49.9,51.6,0,24.1-17.9,45.8-52.6,51.3V392a9.3,9.3,0,0,1-9.3,9.3h-9.4A9.3,9.3,0,0,1,1851.1,392Z"/><circle class="cls-44" cx="2058" cy="561.8" r="125.9"/><circle class="cls-45" cx="2058" cy="561.8" r="121.7"/><path class="cls-42" d="M1957.6,512.6h-.6a1.5,1.5,0,0,1-.6-1.8A113.3,113.3,0,0,1,2058,448.1a107.9,107.9,0,0,1,20.5,1.9,1.3,1.3,0,0,1,1.1,1.5,1.4,1.4,0,0,1-1.6,1.1,111.2,111.2,0,0,0-119.2,59.3A1.4,1.4,0,0,1,1957.6,512.6Z"/><circle class="cls-42" cx="2060.6" cy="564.5" r="103" transform="translate(204.4 1622.4) rotate(-45)"/><path class="cls-46" d="M2050.6,641.1V629.9a92.1,92.1,0,0,1-31.5-6.9,6.4,6.4,0,0,1-3.6-7.6l2.9-10.5a6.4,6.4,0,0,1,8.8-4.2,76.5,76.5,0,0,0,29.1,6.1c11.2,0,19.6-3.8,19.6-11.7s-6.5-11.2-22.1-15.4c-22.3-6.1-38.3-15.8-38.3-35.5,0-17.7,12.9-31.3,35.4-34.9V498.1a6.6,6.6,0,0,1,6.6-6.5h6.6a6.5,6.5,0,0,1,6.5,6.5v10.1a82,82,0,0,1,24.9,4.4,6.6,6.6,0,0,1,4.1,7.9l-2.6,9.6a6.5,6.5,0,0,1-8.6,4.4,70.2,70.2,0,0,0-24.5-4.4c-13.3,0-17.2,5.5-17.2,10.5s8.1,10.3,25.4,15.6c24.8,7.5,35.1,17.8,35.1,36.3s-12.6,32.2-37,36v12.6a6.5,6.5,0,0,1-6.5,6.5h-6.6A6.5,6.5,0,0,1,2050.6,641.1Z"/><circle class="cls-47" cx="1823.7" cy="673.5" r="107.7"/><circle class="cls-48" cx="1823.7" cy="673.5" r="104.1"/><path class="cls-42" d="M1737.8,631.4h-.5a1.2,1.2,0,0,1-.5-1.6,96.9,96.9,0,0,1,86.9-53.4,94.2,94.2,0,0,1,17.5,1.6,1.1,1.1,0,0,1-.4,2.2,97.9,97.9,0,0,0-17.1-1.5,94.4,94.4,0,0,0-84.8,52.2A1.3,1.3,0,0,1,1737.8,631.4Z"/><circle class="cls-42" cx="1826" cy="675.8" r="88.1"/><path class="cls-49" d="M1817.3,741.3v-9.6a77.4,77.4,0,0,1-26.9-5.9,5.6,5.6,0,0,1-3.1-6.5l2.5-8.9a5.5,5.5,0,0,1,7.5-3.7,65.6,65.6,0,0,0,24.9,5.2c9.6,0,16.8-3.2,16.8-9.9s-5.6-9.6-19-13.2c-19-5.2-32.7-13.6-32.7-30.4,0-15.1,11.1-26.7,30.3-29.8V619a5.6,5.6,0,0,1,5.6-5.6h5.6a5.6,5.6,0,0,1,5.6,5.6v8.6a74.9,74.9,0,0,1,21.3,3.8,5.6,5.6,0,0,1,3.5,6.7l-2.2,8.3a5.7,5.7,0,0,1-7.4,3.8,57.3,57.3,0,0,0-20.9-3.8c-11.4,0-14.7,4.7-14.7,8.9s6.9,8.8,21.7,13.4c21.2,6.4,30,15.2,30,31s-10.7,27.6-31.6,30.8v10.8a5.6,5.6,0,0,1-5.6,5.5h-5.6A5.6,5.6,0,0,1,1817.3,741.3Z"/><path class="cls-14" d="M276.6,549.4l-.5,6.5h0a1.1,1.1,0,0,1-1.2,1.1,1.1,1.1,0,0,1-1-1.2h0l.6-6.5a1.1,1.1,0,0,1,1.2-1,1,1,0,0,1,.9,1.2Z"/><path class="cls-14" d="M275.5,571.1v6.5h0a1.2,1.2,0,0,1-1.3,1.2,1.2,1.2,0,0,1-1.2-1.2h0V571a1.3,1.3,0,0,1,1.2-1.2,1.2,1.2,0,0,1,1.2,1.2Z"/><path class="cls-14" d="M276.3,592.7l.6,6.5h0a1.4,1.4,0,0,1-1.2,1.5,1.4,1.4,0,0,1-1.5-1.2h0l-.5-6.6a1.3,1.3,0,0,1,2.6-.2Z"/><path class="cls-14" d="M278.9,614.2l1.1,6.4h0a1.5,1.5,0,0,1-1.2,1.7,1.5,1.5,0,0,1-1.7-1.2h0l-1.1-6.5a1.5,1.5,0,1,1,2.9-.5Z"/><path class="cls-14" d="M283.2,635.5l1.6,6.2h0a1.6,1.6,0,0,1-1.1,1.9,1.5,1.5,0,0,1-1.9-1.1h0l-1.6-6.4a1.6,1.6,0,0,1,1.1-1.9,1.6,1.6,0,0,1,1.9,1.1Z"/><path class="cls-14" d="M289.1,656.3l2.1,6.1h.1a1.7,1.7,0,0,1-1.1,2.1,1.6,1.6,0,0,1-2.1-1.1h0l-2.1-6.2a1.6,1.6,0,1,1,3.1-1.1Z"/><path class="cls-14" d="M296.7,676.6l2.6,5.9h0a1.8,1.8,0,0,1-1,2.3,1.7,1.7,0,0,1-2.3-.9h0l-2.6-6.1a1.9,1.9,0,0,1,1-2.3,1.7,1.7,0,0,1,2.3.9Z"/><path class="cls-14" d="M305.8,696.2l3,5.8h0a2,2,0,0,1-.8,2.6,1.9,1.9,0,0,1-2.6-.8h0l-3-5.9a1.9,1.9,0,0,1,3.3-1.7Z"/><path class="cls-14" d="M316.3,715.1l3.4,5.6h0a2,2,0,0,1-.7,2.8,1.9,1.9,0,0,1-2.7-.7h0l-3.5-5.6a2,2,0,0,1,.7-2.7,1.9,1.9,0,0,1,2.7.6Z"/><path class="cls-14" d="M328.1,733.2l3.8,5.3h.1a2.2,2.2,0,0,1-3.5,2.5h0l-3.8-5.4a2,2,0,0,1,.5-2.9,2.1,2.1,0,0,1,2.9.5Z"/><path class="cls-14" d="M341.3,750.4l4.2,4.9h0a2.3,2.3,0,0,1-.2,3.2,2.2,2.2,0,0,1-3.2-.3h0l-4.2-5a2.2,2.2,0,0,1,.3-3.2,2.3,2.3,0,0,1,3.1.3Z"/><path class="cls-14" d="M355.7,766.4l4.6,4.7h0a2.3,2.3,0,0,1-3.3,3.3h0l-4.6-4.8a2.2,2.2,0,0,1,0-3.2,2.4,2.4,0,0,1,3.3,0Z"/><path class="cls-14" d="M371.3,781.4l4.9,4.2h.1a2.5,2.5,0,0,1,.2,3.5,2.3,2.3,0,0,1-3.4.3H373l-4.9-4.4a2.4,2.4,0,0,1-.2-3.4,2.5,2.5,0,0,1,3.4-.3Z"/><path class="cls-14" d="M388.1,795l5.2,3.8h0a2.5,2.5,0,1,1-3,4.1h-.1l-5.2-3.9a2.5,2.5,0,0,1-.5-3.6,2.5,2.5,0,0,1,3.5-.5Z"/><path class="cls-14" d="M405.8,807.3l5.5,3.4h0a2.6,2.6,0,0,1,.9,3.7,2.6,2.6,0,0,1-3.6.8h-.1l-5.6-3.5a2.6,2.6,0,0,1-.8-3.6,2.7,2.7,0,0,1,3.6-.9Z"/><path class="cls-14" d="M424.5,818l5.7,3h.1a2.7,2.7,0,1,1-2.5,4.8h0l-5.9-3a2.6,2.6,0,0,1-1.1-3.6,2.7,2.7,0,0,1,3.6-1.2Z"/><path class="cls-14" d="M444,827.2l6,2.4h0a2.8,2.8,0,1,1-2,5.2h-.1l-6.1-2.4a2.8,2.8,0,0,1-1.5-3.6,2.8,2.8,0,0,1,3.6-1.6Z"/><path class="cls-14" d="M464.2,834.6l6.2,1.9h0a2.9,2.9,0,0,1,1.9,3.6,2.8,2.8,0,0,1-3.6,1.8h0l-6.3-1.9a2.8,2.8,0,0,1-1.8-3.6,2.7,2.7,0,0,1,3.5-1.8Z"/><path class="cls-14" d="M484.9,840.4l6.4,1.4h0a2.9,2.9,0,1,1-1.3,5.7h0l-6.4-1.5a3,3,0,0,1-2.2-3.5,2.9,2.9,0,0,1,3.5-2.1Z"/><path class="cls-14" d="M506.1,844.6l6.4.9h.1a3,3,0,0,1-.9,5.9h0l-6.6-1a3,3,0,0,1,.9-5.9Z"/><path class="cls-14" d="M527.5,847.2l6.4.5h.1a3,3,0,0,1,2.8,3.2,3,3,0,0,1-3.3,2.8h0l-6.5-.5a3,3,0,0,1-2.8-3.3,2.9,2.9,0,0,1,3.2-2.7Z"/><path class="cls-14" d="M549,848.3h6.6a3.2,3.2,0,0,1,3,3.2,3,3,0,0,1-3.1,3h-6.6a3,3,0,0,1-3-3.1,3,3,0,0,1,3.1-3Z"/><path class="cls-14" d="M570.6,848l6.5-.4h0a3.2,3.2,0,0,1,3.4,3,3.2,3.2,0,0,1-3,3.3h0l-6.6.3a3.1,3.1,0,1,1-.4-6.2Z"/><path class="cls-14" d="M592.1,846.3l6.5-.8h0a3.3,3.3,0,0,1,3.6,2.9,3.2,3.2,0,0,1-2.8,3.5h-.1l-6.5.8a3.1,3.1,0,0,1-3.5-2.9,3.1,3.1,0,0,1,2.8-3.5Z"/><path class="cls-14" d="M613.5,843.3l6.4-1.1h0a3.3,3.3,0,0,1,3.8,2.7,3.2,3.2,0,0,1-2.6,3.8h0l-6.5,1.1a3.3,3.3,0,0,1-1.2-6.5Z"/><path class="cls-14" d="M634.7,839.2l6.3-1.5h.1a3.3,3.3,0,1,1,1.5,6.5h0l-6.5,1.5a3.3,3.3,0,0,1-3.9-2.5,3.3,3.3,0,0,1,2.4-4Z"/><path class="cls-14" d="M655.6,833.9l6.3-1.9h0a3.4,3.4,0,0,1,4.2,2.4,3.3,3.3,0,0,1-2.3,4.2h0l-6.3,1.8a3.4,3.4,0,0,1-1.9-6.5Z"/><path class="cls-14" d="M676.3,827.5l6.1-2.2h.1a3.6,3.6,0,0,1,4.4,2.2,3.5,3.5,0,0,1-2.2,4.4h0l-6.2,2.1a3.4,3.4,0,1,1-2.3-6.5Z"/><path class="cls-14" d="M696.6,820.1l6-2.5h0a3.5,3.5,0,0,1,4.6,2,3.5,3.5,0,0,1-1.9,4.6h0l-6.2,2.4a3.5,3.5,0,0,1-4.5-2,3.4,3.4,0,0,1,1.9-4.5Z"/><path class="cls-14" d="M716.5,811.7l5.9-2.7h0a3.5,3.5,0,0,1,4.8,1.7,3.7,3.7,0,0,1-1.8,4.8h0l-6,2.7a3.6,3.6,0,0,1-2.9-6.5Z"/><path class="cls-14" d="M736,802.4l5.8-3h0a3.7,3.7,0,0,1,5,1.5,3.8,3.8,0,0,1-1.6,5h0l-5.9,3a3.6,3.6,0,1,1-3.3-6.5Z"/><path class="cls-14" d="M755.1,792.2l5.6-3.2h0a3.7,3.7,0,0,1,5.1,1.4,3.6,3.6,0,0,1-1.4,5h0l-5.7,3.3a3.8,3.8,0,0,1-5.1-1.4,3.7,3.7,0,0,1,1.4-5Z"/><path class="cls-14" d="M773.7,781.2l5.5-3.4h0a3.7,3.7,0,1,1,4,6.3h0l-5.6,3.5a3.7,3.7,0,0,1-5.1-1.2,3.6,3.6,0,0,1,1.2-5.1Z"/><path class="cls-14" d="M791.9,769.5l5.4-3.6h0a3.8,3.8,0,0,1,5.2,1,3.7,3.7,0,0,1-1,5.2h0l-5.5,3.7a3.7,3.7,0,0,1-5.1-1,3.7,3.7,0,0,1,1-5.2Z"/><path class="cls-14" d="M809.7,757.2l5.3-3.9h0a3.7,3.7,0,0,1,5.2.9,3.6,3.6,0,0,1-.8,5.2h0l-5.3,3.9a3.8,3.8,0,0,1-5.3-.9,3.7,3.7,0,0,1,.9-5.2Z"/><path class="cls-14" d="M827.1,744.3l5.1-4h.1a3.8,3.8,0,0,1,5.3.6,3.9,3.9,0,0,1-.7,5.3h0l-5.2,4a3.7,3.7,0,0,1-5.3-.7,3.6,3.6,0,0,1,.7-5.2Z"/><path class="cls-14" d="M844.1,730.8l5-4.1h.1a3.7,3.7,0,0,1,5.3.5,3.8,3.8,0,0,1-.5,5.3h0l-5.1,4.2a3.8,3.8,0,0,1-4.8-5.9Z"/><path class="cls-14" d="M860.7,716.9l5-4.2h0a3.8,3.8,0,1,1,5,5.8h0l-5,4.3a3.8,3.8,0,0,1-5.4-.4,3.9,3.9,0,0,1,.4-5.4Z"/><path class="cls-14" d="M877,702.6l4.9-4.4h0a3.8,3.8,0,0,1,5.1,5.7h0l-4.8,4.4a3.9,3.9,0,0,1-5.2-5.7Z"/><path class="cls-14" d="M893,687.9l4.8-4.4h0a3.9,3.9,0,0,1,5.3,5.7h0l-4.8,4.4a3.8,3.8,0,0,1-5.4-.1,3.9,3.9,0,0,1,.1-5.5Z"/><path class="cls-14" d="M908.7,672.9l4.7-4.5h0a3.9,3.9,0,0,1,5.5,0,3.8,3.8,0,0,1-.1,5.5h0l-4.7,4.6a3.8,3.8,0,0,1-5.5-.1,4,4,0,0,1,.1-5.5Z"/><path class="cls-14" d="M924.2,657.7l4.6-4.6h0a3.9,3.9,0,0,1,5.5,0,3.8,3.8,0,0,1,0,5.5h0l-4.6,4.6a3.9,3.9,0,0,1-5.5-5.5Z"/><path class="cls-14" d="M939.5,642.2l4.5-4.7h0a4,4,0,1,1,5.7,5.5h-.1l-4.5,4.7a3.9,3.9,0,1,1-5.6-5.5Z"/><path class="cls-14" d="M954.6,626.5l4.5-4.7a3.9,3.9,0,0,1,5.7,5.4h0l-4.5,4.8a4,4,0,1,1-5.7-5.5Z"/><path class="cls-14" d="M969.5,610.7,974,606a4,4,0,0,1,5.8,5.4h0l-4.5,4.8a4,4,0,0,1-5.8-5.5Z"/><path class="cls-14" d="M984.4,594.8l4.4-4.7a4,4,0,0,1,5.7-.3,4.1,4.1,0,0,1,.2,5.7h0l-4.5,4.8a4,4,0,0,1-5.6.2A4.1,4.1,0,0,1,984.4,594.8Z"/><path class="cls-14" d="M999.2,578.9l4.4-4.8a4,4,0,0,1,5.7-.3,4.1,4.1,0,0,1,.2,5.7h0l-4.4,4.8a4.1,4.1,0,0,1-5.7.2A4,4,0,0,1,999.2,578.9Z"/><path class="cls-14" d="M1014,562.9l4.5-4.8a4,4,0,0,1,5.9,5.5h-.1l-4.4,4.7a3.9,3.9,0,0,1-5.7.2A4,4,0,0,1,1014,562.9Z"/><path class="cls-14" d="M1028.8,546.9l4.5-4.8a4.1,4.1,0,0,1,5.7-.2,4,4,0,0,1,.2,5.7h0l-4.5,4.7a4,4,0,0,1-5.7.2A4.1,4.1,0,0,1,1028.8,546.9Z"/><path class="cls-14" d="M1043.8,531l4.5-4.8a4,4,0,0,1,5.7-.1,4.1,4.1,0,0,1,.2,5.7h-.1l-4.4,4.8a4.1,4.1,0,0,1-5.8.1A4,4,0,0,1,1043.8,531Z"/><path class="cls-14" d="M1058.8,515.2l4.5-4.7a4.1,4.1,0,0,1,5.9,5.6h0l-4.5,4.7h0a4.1,4.1,0,0,1-5.9-5.6Z"/><path class="cls-14" d="M1074,499.5l4.6-4.7a4.1,4.1,0,0,1,5.8,5.8h0l-4.6,4.7h0a4.1,4.1,0,0,1-5.8-5.8Z"/><path class="cls-14" d="M1089.3,484l4.7-4.6a4.1,4.1,0,0,1,5.8,0,4.2,4.2,0,0,1,0,5.9h0l-4.6,4.6h-.1a4,4,0,0,1-5.8-.1A4.1,4.1,0,0,1,1089.3,484Z"/><path class="cls-14" d="M1105,468.7l4.7-4.5a4.1,4.1,0,1,1,5.7,6h0l-4.7,4.5h0a4.1,4.1,0,1,1-5.7-6Z"/><path class="cls-14" d="M1120.9,453.7l4.8-4.4a4.1,4.1,0,0,1,5.6,6.1h0l-4.8,4.4h0a4.1,4.1,0,0,1-5.9-.2,4.2,4.2,0,0,1,.3-5.9Z"/><path class="cls-14" d="M1137.1,439.1l4.9-4.4a4.1,4.1,0,0,1,5.5,6.2h-.1l-4.8,4.3h-.1a4.1,4.1,0,1,1-5.4-6.1Z"/><path class="cls-14" d="M1153.6,424.7l5.1-4.2a4.2,4.2,0,0,1,5.8.5,4.1,4.1,0,0,1-.6,5.8h0l-5,4.2h0a4,4,0,0,1-5.8-.5,4.2,4.2,0,0,1,.5-5.8Z"/><path class="cls-14" d="M1170.6,410.9l5.1-4.1a4,4,0,0,1,5.7.7,4.1,4.1,0,0,1-.6,5.7h0l-5.1,4.1h-.1a4.1,4.1,0,0,1-5-6.4Z"/><path class="cls-14" d="M1187.9,397.5l5.2-4a4.1,4.1,0,0,1,5.7.9,4,4,0,0,1-.8,5.7h0l-5.2,3.9h-.1a4,4,0,1,1-4.8-6.5Z"/><path class="cls-14" d="M1205.6,384.6l5.4-3.8a4,4,0,0,1,5.6,1.1,3.9,3.9,0,0,1-1,5.6h0l-5.3,3.7h-.1a4,4,0,0,1-5.6-1.1,3.9,3.9,0,0,1,1-5.6Z"/><path class="cls-14" d="M1223.7,372.3l5.6-3.6a4.1,4.1,0,0,1,4.4,6.8h-.1l-5.4,3.5h-.1a4.1,4.1,0,0,1-5.6-1.2,4.1,4.1,0,0,1,1.2-5.6Z"/><path class="cls-14" d="M1242.3,360.7l5.7-3.4a4,4,0,0,1,5.5,1.4,4,4,0,0,1-1.4,5.5h0l-5.6,3.3h0a4.2,4.2,0,0,1-5.6-1.4,4,4,0,0,1,1.4-5.5Z"/><path class="cls-14" d="M1261.4,349.7l5.7-3.1a4.1,4.1,0,1,1,3.9,7.1h-.1l-5.7,3.1h0a4,4,0,0,1-5.4-1.6,3.9,3.9,0,0,1,1.6-5.4Z"/><path class="cls-14" d="M1280.8,339.5l5.8-2.9a4,4,0,0,1,5.4,1.8,3.9,3.9,0,0,1-1.8,5.3h0l-5.8,2.9h-.1a3.9,3.9,0,0,1-5.3-1.8,4.1,4.1,0,0,1,1.7-5.4Z"/><path class="cls-14" d="M1300.5,330l6-2.7a4,4,0,0,1,5.3,2,3.9,3.9,0,0,1-2,5.2h-.1l-5.9,2.6h0a4,4,0,1,1-3.3-7.3Z"/><path class="cls-14" d="M1320.6,321.2l6.1-2.5a4,4,0,0,1,3,7.4h-.1l-6,2.4h0a4,4,0,0,1-3-7.4Z"/><path class="cls-14" d="M1341,313.2l6.1-2.3a4,4,0,0,1,2.8,7.4h-.1l-6.1,2.2h0a4,4,0,0,1-5.1-2.4,3.9,3.9,0,0,1,2.4-5Z"/><path class="cls-14" d="M1361.6,305.8l6.3-2a3.9,3.9,0,0,1,2.4,7.4h0l-6.2,2.1h0a3.9,3.9,0,0,1-5-2.5,4,4,0,0,1,2.5-5Z"/><path class="cls-14" d="M1382.5,299.2l6.3-1.8a3.9,3.9,0,1,1,2.2,7.5h0l-6.2,1.8h-.1a3.9,3.9,0,0,1-2.2-7.5Z"/><path class="cls-14" d="M1403.6,293.3l6.4-1.6a4.1,4.1,0,0,1,4.8,2.8,4,4,0,0,1-2.9,4.8h0l-6.3,1.6h0a4,4,0,0,1-4.8-2.8,4.1,4.1,0,0,1,2.8-4.8Z"/><path class="cls-14" d="M1425,288.2l6.4-1.4a3.9,3.9,0,0,1,4.6,3,3.8,3.8,0,0,1-3,4.6h0l-6.3,1.4h-.1a3.8,3.8,0,0,1-4.6-3,3.9,3.9,0,0,1,3-4.6Z"/><path class="cls-14" d="M1446.5,283.9l6.4-1.2a3.9,3.9,0,1,1,1.4,7.6h0l-6.4,1.2h-.1a3.9,3.9,0,0,1-4.5-3.1,3.8,3.8,0,0,1,3.1-4.5Z"/><path class="cls-14" d="M1468.1,280.2l6.5-.9a3.8,3.8,0,0,1,4.3,3.3,3.8,3.8,0,0,1-3.2,4.3h-.1l-6.4,1h0a3.9,3.9,0,1,1-1.1-7.7Z"/><path class="cls-14" d="M1489.8,277.4l6.5-.7a3.9,3.9,0,0,1,4.3,3.4,3.8,3.8,0,0,1-3.4,4.2h-.1l-6.4.7h-.1a3.8,3.8,0,0,1-4.2-3.4,3.8,3.8,0,0,1,3.4-4.2Z"/><path class="cls-14" d="M1511.6,275.3l6.6-.5a3.9,3.9,0,1,1,.5,7.7h0l-6.5.4h0a3.7,3.7,0,0,1-4.1-3.5,3.8,3.8,0,0,1,3.5-4.1Z"/><path class="cls-14" d="M1533.5,274l6.6-.2a3.7,3.7,0,0,1,3.9,3.6,3.8,3.8,0,0,1-3.6,4h-.1l-6.5.2h0a3.8,3.8,0,0,1-4-3.6,4,4,0,0,1,3.7-4Z"/><path class="cls-14" d="M1555.4,273.5h6.6a3.8,3.8,0,0,1,0,7.6h-6.6a3.8,3.8,0,0,1,0-7.6Z"/><path class="cls-14" d="M1577.3,273.8l6.6.2a3.7,3.7,0,0,1,3.6,3.9,3.7,3.7,0,0,1-3.9,3.6h0l-6.5-.2h0a3.9,3.9,0,0,1-3.7-3.9,3.7,3.7,0,0,1,3.9-3.6Z"/><path class="cls-14" d="M1599.2,274.8l6.6.5a3.7,3.7,0,0,1,3.5,4,3.9,3.9,0,0,1-4.1,3.5h0l-6.5-.5h0a3.7,3.7,0,0,1-3.5-4,3.8,3.8,0,0,1,4-3.5Z"/><path class="cls-14" d="M1621.1,276.7l6.5.7a3.7,3.7,0,1,1-.8,7.4h0l-6.5-.7h0a3.7,3.7,0,0,1-3.4-4.1,3.8,3.8,0,0,1,4.2-3.3Z"/><path class="cls-14" d="M1642.8,279.3l6.5,1a3.7,3.7,0,0,1,3.2,4.2,3.8,3.8,0,0,1-4.3,3.2h0l-6.4-1h-.1a3.7,3.7,0,0,1-3.1-4.2,3.8,3.8,0,0,1,4.2-3.2Z"/><path class="cls-14" d="M1664.5,282.8l6.4,1.3a3.7,3.7,0,1,1-1.3,7.2h-.1l-6.4-1.2h0a3.8,3.8,0,0,1-3-4.3,3.9,3.9,0,0,1,4.4-3Z"/><path class="cls-14" d="M1686,287.2l6.4,1.5a3.7,3.7,0,0,1,2.7,4.5,3.5,3.5,0,0,1-4.4,2.7h-.1l-6.3-1.5h0a3.7,3.7,0,0,1-2.8-4.4,3.8,3.8,0,0,1,4.5-2.8Z"/><path class="cls-14" d="M1707.3,292.6l6.3,1.8a3.6,3.6,0,0,1,2.5,4.5,3.7,3.7,0,0,1-4.5,2.6h-.1l-6.2-1.7h-.1a3.8,3.8,0,0,1-2.5-4.6,3.7,3.7,0,0,1,4.5-2.5Z"/><path class="cls-14" d="M1728.3,299l6.2,2.1a3.6,3.6,0,0,1-2.3,6.9h-.1l-6.1-2.1h-.1a3.7,3.7,0,0,1-2.3-4.6,3.6,3.6,0,0,1,4.6-2.3Z"/><path class="cls-14" d="M1748.9,306.5l6.1,2.4a3.6,3.6,0,0,1-2.6,6.7h-.1l-6-2.4h-.1a3.7,3.7,0,0,1-2-4.7,3.6,3.6,0,0,1,4.7-2Z"/><path class="cls-14" d="M1769.1,315.1l6,2.9a3.5,3.5,0,1,1-3,6.3h-.1l-5.8-2.7h-.1a3.5,3.5,0,1,1,3-6.4Z"/><path class="cls-14" d="M1788.8,325l5.8,3.2a3.4,3.4,0,0,1,1.3,4.7,3.5,3.5,0,0,1-4.7,1.4h-.1l-5.6-3.1h-.1a3.5,3.5,0,0,1-1.4-4.7,3.6,3.6,0,0,1,4.8-1.4Z"/><path class="cls-14" d="M1807.8,336.2l5.5,3.6a3.4,3.4,0,1,1-3.7,5.7h-.1l-5.4-3.5h-.1a3.5,3.5,0,0,1-1-4.8,3.4,3.4,0,0,1,4.8-1Z"/><path class="cls-14" d="M1825.9,348.7l5.3,4a3.5,3.5,0,0,1,.6,4.8,3.6,3.6,0,0,1-4.8.6h0l-5.1-3.9h-.1a3.5,3.5,0,0,1-.7-4.8,3.4,3.4,0,0,1,4.8-.6Z"/><path class="cls-14" d="M1843,362.6l4.9,4.4a3.3,3.3,0,0,1-4.4,5h-.1l-4.8-4.3h-.1a3.5,3.5,0,0,1-.2-4.8,3.2,3.2,0,0,1,4.7-.2Z"/><path class="cls-14" d="M1858.9,377.9l4.6,4.8a3.3,3.3,0,1,1-4.9,4.5h0l-4.4-4.8h-.1a3.3,3.3,0,0,1,.2-4.7,3.2,3.2,0,0,1,4.6.2Z"/><path class="cls-14" d="M1873.5,394.5l4,5.3a3.3,3.3,0,0,1-5.2,3.9h0l-4-5.1h0a3.2,3.2,0,1,1,5.1-4Z"/><path class="cls-14" d="M1886.3,412.5l3.5,5.7a3.2,3.2,0,1,1-5.5,3.3h0l-3.4-5.5h-.1a3.2,3.2,0,0,1,1-4.4,3.3,3.3,0,0,1,4.5,1Z"/><path class="cls-14" d="M1897.2,431.7l2.9,5.9a3.1,3.1,0,1,1-5.6,2.8h0l-2.9-5.8h0a3.1,3.1,0,0,1,5.6-2.8Z"/><path class="cls-14" d="M1906.3,451.8l2.3,6.2a3.1,3.1,0,0,1-5.8,2.2h0l-2.3-6h0a3,3,0,0,1,1.8-4,3.1,3.1,0,0,1,4,1.8Z"/><path class="cls-14" d="M1913.4,472.7l1.8,6.4a3.1,3.1,0,0,1-5.9,1.6h0l-1.8-6.2h0a3.1,3.1,0,0,1,2.1-3.8,3,3,0,0,1,3.8,2.1Z"/><path class="cls-14" d="M1918.7,494.1l1.2,6.5a3,3,0,0,1-2.4,3.5,3,3,0,0,1-3.5-2.4h-.1l-1.2-6.3h0a3,3,0,0,1,2.4-3.5,3.1,3.1,0,0,1,3.6,2.4Z"/><path class="cls-14" d="M1922,515.9l.7,6.6a3.1,3.1,0,0,1-2.7,3.2,2.9,2.9,0,0,1-3.2-2.7h0l-.7-6.5h0a3,3,0,0,1,2.7-3.3,2.9,2.9,0,0,1,3.2,2.7Z"/><path class="cls-14" d="M1923.5,537.9v6.6a2.9,2.9,0,0,1-2.9,2.9,2.8,2.8,0,0,1-2.9-2.9h0V538h0a2.9,2.9,0,0,1,5.8-.2Z"/><path class="cls-14" d="M1923.2,559.9l-.5,6.6a2.9,2.9,0,0,1-3.1,2.6,2.9,2.9,0,0,1-2.6-3h0l.4-6.4h0a2.9,2.9,0,1,1,5.8.4Z"/><path class="cls-14" d="M1921,581.8l-1,6.5a3,3,0,0,1-3.3,2.4,2.9,2.9,0,0,1-2.3-3.3h0l1-6.4h0a2.7,2.7,0,0,1,3.2-2.3,2.8,2.8,0,0,1,2.4,3.2Z"/><path class="cls-14" d="M1916.9,603.4l-1.5,6.4a2.9,2.9,0,0,1-3.4,2.1,2.8,2.8,0,0,1-2-3.4h0l1.5-6.3h0a2.8,2.8,0,0,1,3.4-2,2.6,2.6,0,0,1,2,3.3Z"/><path class="cls-14" d="M1911,624.6l-2.1,6.3a2.7,2.7,0,0,1-3.4,1.7,2.6,2.6,0,0,1-1.7-3.4h0l2-6.1h.1a2.6,2.6,0,0,1,3.4-1.7,2.6,2.6,0,0,1,1.7,3.4Z"/><path class="cls-14" d="M1903.3,645.3l-2.7,6a2.6,2.6,0,0,1-4.8-2.2h0l2.6-5.9h0a2.7,2.7,0,0,1,4.9,2.1Z"/><path class="cls-14" d="M1893.7,665.1l-3.2,5.7a2.6,2.6,0,0,1-4.6-2.5h0l3.2-5.6h0a2.6,2.6,0,0,1,4.6,2.6Z"/><path class="cls-14" d="M1882.3,683.9l-3.8,5.4a2.6,2.6,0,0,1-4.2-2.9h.1l3.6-5.4h.1a2.5,2.5,0,0,1,3.5-.7,2.6,2.6,0,0,1,.7,3.6Z"/><path class="cls-14" d="M1869,701.5l-4.3,5a2.5,2.5,0,0,1-3.4.3,2.4,2.4,0,0,1-.3-3.5h0l4.2-4.9h.1a2.3,2.3,0,0,1,3.4-.3,2.4,2.4,0,0,1,.3,3.5Z"/><path class="cls-14" d="M1854.1,717.6l-4.9,4.6a2.4,2.4,0,0,1-3.3-.1,2.3,2.3,0,0,1,.1-3.3h0l4.7-4.5h.1a2.4,2.4,0,0,1,3.3,0,2.4,2.4,0,0,1,0,3.4Z"/><path class="cls-14" d="M1837.5,732.2l-5.2,4a2.3,2.3,0,1,1-2.8-3.6h0l5.1-4h.1a2.3,2.3,0,0,1,3.2.4,2.4,2.4,0,0,1-.4,3.3Z"/><path class="cls-14" d="M1819.6,745l-5.5,3.5a2.2,2.2,0,1,1-2.4-3.7h.1l5.4-3.5h.1a2.1,2.1,0,0,1,3,.6,2.2,2.2,0,0,1-.6,3.1Z"/><path class="cls-14" d="M1800.7,756.1l-5.9,2.9a2.1,2.1,0,0,1-2.9-.9,2.1,2.1,0,0,1,1-2.8h0l5.8-2.9h0a2,2,0,0,1,2.9.9,2.3,2.3,0,0,1-.9,2.9Z"/><path class="cls-14" d="M1780.7,765.3l-6.1,2.5a2,2,0,0,1-2.6-1.2,2,2,0,0,1,1.1-2.6h.1l6-2.5h0a2.1,2.1,0,0,1,2.7,1.2,2,2,0,0,1-1.1,2.6Z"/><path class="cls-14" d="M1760.1,772.8l-6.3,1.9a2,2,0,0,1-2.4-1.3,1.8,1.8,0,0,1,1.3-2.4h0l6.2-1.9h.1a2,2,0,0,1,2.4,1.3,2,2,0,0,1-1.3,2.5Z"/><path class="cls-14" d="M1738.9,778.4l-6.5,1.4a1.9,1.9,0,0,1-.7-3.7h0l6.4-1.3h0a1.8,1.8,0,1,1,.8,3.6Z"/><path class="cls-14" d="M1717.3,782.3l-6.5.8a1.8,1.8,0,0,1-2-1.6,1.9,1.9,0,0,1,1.5-2h.1l6.4-.8h0a2,2,0,0,1,2.1,1.6,1.9,1.9,0,0,1-1.6,2Z"/><path class="cls-14" d="M1695.5,784.3l-6.6.2a1.8,1.8,0,0,1-1.8-1.6,1.7,1.7,0,0,1,1.7-1.7h0l6.5-.3h0a1.6,1.6,0,0,1,1.8,1.6,1.8,1.8,0,0,1-1.6,1.8Z"/><path class="cls-14" d="M1673.5,784.4l-6.5-.3a1.5,1.5,0,0,1-1.5-1.6,1.6,1.6,0,0,1,1.6-1.6h.1l6.4.3h.1a1.5,1.5,0,0,1,1.5,1.7,1.4,1.4,0,0,1-1.6,1.5Z"/><path class="cls-14" d="M1651.7,782.7l-6.5-.8a1.5,1.5,0,0,1-1.3-1.7,1.5,1.5,0,0,1,1.7-1.3h0l6.5.8h0a1.6,1.6,0,0,1,1.3,1.7,1.5,1.5,0,0,1-1.7,1.4Z"/><path class="cls-14" d="M1630.1,779.2l-6.4-1.5a1.3,1.3,0,0,1-1.1-1.7,1.5,1.5,0,0,1,1.7-1.1h0l6.4,1.4h0a1.5,1.5,0,0,1,1.1,1.8,1.6,1.6,0,0,1-1.7,1.1Z"/><path class="cls-14" d="M1608.9,773.7l-6.3-2a1.4,1.4,0,0,1,.8-2.6h.1l6.2,2h0a1.4,1.4,0,0,1-.8,2.6Z"/><path class="cls-14" d="M1588.3,766.3l-6.1-2.6a1.3,1.3,0,0,1-.6-1.7,1.3,1.3,0,0,1,1.6-.7h0l6,2.5h.1a1.3,1.3,0,0,1,.6,1.7,1.3,1.3,0,0,1-1.6.7Z"/><path class="cls-14" d="M1568.5,756.9l-5.8-3.2a1.2,1.2,0,0,1-.4-1.6,1.1,1.1,0,0,1,1.5-.4h.1l5.7,3.1h0a1.2,1.2,0,0,1-1.1,2.1Z"/><path class="cls-14" d="M1549.7,745.6l-4.2-2.9a1.1,1.1,0,0,1-.3-1.5,1.1,1.1,0,0,1,1.5-.3h0l4.2,2.9h.1a1.1,1.1,0,0,1,.3,1.5,1.1,1.1,0,0,1-1.6.3Z"/><path class="cls-50" d="M1410.2,1455a5.8,5.8,0,0,0,5.9-4.5l94-497.4c.5-2.9-1.7-5.7-5-6.2s-6.4,1.5-6.9,4.4l-94,497.4c-.6,3,1.6,5.8,4.9,6.3Z"/><path class="cls-51" d="M1727.2,1455h1.2c3.3-.6,5.4-3.4,4.7-6.3l-110.8-491c-.6-2.9-3.8-4.8-7.1-4.2s-5.4,3.4-4.7,6.3l110.8,491C1721.8,1453.3,1724.4,1455,1727.2,1455Z"/><path class="cls-52" d="M1481.9,1076h160.5c3.4,0,6.1-2.4,6.1-5.4s-2.7-5.4-6.1-5.4H1481.9c-3.4,0-6.1,2.4-6.1,5.4S1478.5,1076,1481.9,1076Z"/><path class="cls-53" d="M1484.8,1076h154.7a5.4,5.4,0,1,0,0-10.8H1484.8a5.4,5.4,0,1,0,0,10.8Z"/><path class="cls-54" d="M1481.9,1166h160.5c3.4,0,6.1-2.4,6.1-5.4s-2.7-5.4-6.1-5.4H1481.9c-3.4,0-6.1,2.4-6.1,5.4S1478.5,1166,1481.9,1166Z"/><path class="cls-55" d="M1467.3,1166H1662c3.3,0,6-2.4,6-5.4s-2.7-5.4-6-5.4H1467.3c-3.4,0-6.1,2.4-6.1,5.4S1463.9,1166,1467.3,1166Z"/><path class="cls-56" d="M1481.9,1255.9h160.5c3.4,0,6.1-2.4,6.1-5.4s-2.7-5.4-6.1-5.4H1481.9c-3.4,0-6.1,2.4-6.1,5.4S1478.5,1255.9,1481.9,1255.9Z"/><path class="cls-57" d="M1448.7,1255.9h233c3.4,0,6.1-2.4,6.1-5.4s-2.7-5.4-6.1-5.4h-233c-3.4,0-6.1,2.4-6.1,5.4S1445.3,1255.9,1448.7,1255.9Z"/><path class="cls-58" d="M1481.9,1345.9h218.6c3.3,0,6-2.5,6-5.4s-2.7-5.4-6-5.4H1481.9c-3.4,0-6.1,2.4-6.1,5.4S1478.5,1345.9,1481.9,1345.9Z"/><path class="cls-59" d="M1433.6,1345.9h266.9c3.3,0,6-2.5,6-5.4s-2.7-5.4-6-5.4H1433.6c-3.3,0-6,2.4-6,5.4S1430.3,1345.9,1433.6,1345.9Z"/><path class="cls-60" d="M1626.3,1133.9s3.9,6.2,4.9,23.5a2.8,2.8,0,0,1-2.8,3h-30.6a1.8,1.8,0,0,1-1.7-2.4c1.8-5.3,7.2-18.3,19.3-25.7Z"/><path class="cls-61" d="M1627.7,1122.2l-1.8,14.6a2.8,2.8,0,0,1-2.4,2.4,27.8,27.8,0,0,1-6.4-.1,4.5,4.5,0,0,1-3.7-4.5v-14Z"/><path class="cls-62" d="M1550.5,1132.3a42.6,42.6,0,0,1,5.7,21.7,5.4,5.4,0,0,1-5.4,5.3h-47.6a2.3,2.3,0,0,1-1.3-4.2c9-6.3,26.7-18.1,39.5-22.8Z"/><path class="cls-63" d="M1555.4,1116.6l-3.7,18a3.8,3.8,0,0,1-4.4,2.9,14.3,14.3,0,0,1-4.2-1.8,4.3,4.3,0,0,1-1.9-4.3l3.9-21.7Z"/><path class="cls-64" d="M1620.9,867s12.8,11.4,15.2,25-6.8,235.3-6.8,235.3-12.9,2.1-19.5-1.9c0,0-7.9-143.8-13.8-177.1,0,0-31.4,149-40,176,0,0-12.4,1.5-16.4-.9,0,0,8.2-193.2,18.5-227.5Z"/><path class="cls-65" d="M1596.3,943.8h-.3a1.6,1.6,0,0,1-1.2-1.9l5.5-21a1.3,1.3,0,0,1,.7-.9l11.8-7.6a1.6,1.6,0,0,1,2.1.5,1.4,1.4,0,0,1-.5,2.1l-11.2,7.3-5.3,20.3A1.7,1.7,0,0,1,1596.3,943.8Z"/><path class="cls-66" d="M1488.1,741.5c53.7-8.2,68.5,2.1,68.5,2.1l-23.1,42.7s-53.2,2.5-93.2-24.2a93.6,93.6,0,0,0,13.7-23.8A73.3,73.3,0,0,0,1488.1,741.5Z"/><path class="cls-67" d="M1398.2,667.9a1.7,1.7,0,0,1,3.1-.9l7.9,14.3a15.6,15.6,0,0,1,1.8,9l-1.8,8.7a14.6,14.6,0,0,0,3.8,11.6c6.8,7.5,21.3,21,41,27.7a93.6,93.6,0,0,1-13.7,23.8c-14.7-9.9-27.6-23.6-35.4-42.9a7.2,7.2,0,0,1-5.6-6.8Z"/><path class="cls-68" d="M1476.2,762.7c19-20.5,55.3-29.8,76.3-33.6a19.5,19.5,0,0,1,21.6,12.3c9.4,25.4,35.2,91.5,40.1,102.9,4.1,9.3,8.4,18.4,11.1,24.1a6.8,6.8,0,0,1-3.2,9.1c-17.7,8.5-49.5,18.2-62.4,21.9a4.3,4.3,0,0,1-5.6-4.2,13.6,13.6,0,0,0-2-7.1l-48.8-81.4c-30.5,33.7-57.1,36.8-77.6,29.4a150.8,150.8,0,0,0,6.7-32C1462.7,798.9,1476.2,762.7,1476.2,762.7Z"/><path class="cls-69" d="M1380.2,795.8l5.8-9.5c17.7,12.2,34.4,19.9,46.4,17.8a150.8,150.8,0,0,1-6.7,32C1398.7,826.4,1380.2,795.8,1380.2,795.8Z"/><path class="cls-70" d="M1387.9,782.3l-.6-.6c-1.7-2-7.2-7.6-10.6-3.5s-16.9,25.7-16.9,25.7-18.8,14.3-19.4,19l26.7-10.1a14.4,14.4,0,0,0,6-4.4l13.4-17.3A9.5,9.5,0,0,0,1387.9,782.3Z"/><path class="cls-71" d="M1523.6,691.4l16.3,39.6s-18.7,12.9-33.7,11.7l-8.1-35.6Z"/><path class="cls-72" d="M1496.2,664.4c-.4.5-11.7,41.6-11.7,41.6l23.6,6,16.5-37.3S1502.4,655.6,1496.2,664.4Z"/><path class="cls-73" d="M1515.7,680.4l-7.1,20.3a4.3,4.3,0,0,1-.4.7c-1,1.4-4.7,5.9-9.1,1.9s-7.7-7-11.1-7.7a3.1,3.1,0,0,0-3.4,2.2,137.9,137.9,0,0,0-4,19.8,3.2,3.2,0,0,0,2.5,3.3c4.6.8,14.4,2.4,22.5,1.8a3,3,0,0,0,2.6-1.7c2.2-4.9,9.1-19.8,11.7-23.7s8.3-3.5,10.7-3.3a2.9,2.9,0,0,0,2.2-.7c2.2-1.9,6.3-6.7.5-12.5a3.1,3.1,0,0,1,.1-4.4c2.5-2.3,5.2-6.5,1-11.6s-9.8-4.4-13.2-3.1a3,3,0,0,1-3.6-1.4,2.4,2.4,0,0,0-2.4-1.1,3,3,0,0,1-3.2-3.1c0-3.3-1.2-7.6-7-9.4-10.3-3.2-16.7,6.8-17.3,14.2s10.7,10.3,17.4,9.8c5.1-.4,8.9,4.6,10.4,7.1A3.3,3.3,0,0,1,1515.7,680.4Z"/><path class="cls-74" d="M1517.2,704.7s1.6-12.9,7-13.5,10.6,3.8,5.3,11C1522.8,711.2,1517.2,704.7,1517.2,704.7Z"/></g></g></g></svg>