<svg xmlns="http://www.w3.org/2000/svg" viewBox="0 0 303.4 268.3"><defs><style>.cls-1{fill:#1297cc;}.cls-2{fill:#11a9cc;}.cls-3{fill:#057fa5;}.cls-4,.cls-5,.cls-6,.cls-7{fill:none;stroke-miterlimit:10;}.cls-4,.cls-5{stroke:#fff;stroke-width:4px;}.cls-5{stroke-dasharray:12.27 12.27;}.cls-6,.cls-7{stroke:#11a9cc;stroke-width:3px;}.cls-7{stroke-dasharray:7.94 7.94;}</style></defs><title>Asset 1</title><g id="Layer_2" data-name="Layer 2"><g id="Layer_1-2" data-name="Layer 1"><polygon class="cls-1" points="303.4 0 256.2 83.6 213 56.3 303.4 0"/><polygon class="cls-2" points="223.4 67.6 204.9 83.6 211.3 58.8 223.4 67.6"/><polygon class="cls-3" points="190.7 52.9 201.4 82.3 207.1 55.8 301.2 0.5 190.7 52.9"/><polygon class="cls-1" points="152.8 40.7 188.1 50.1 299.8 1.4 152.8 40.7"/><path class="cls-4" d="M199.3,83.5l-5.9,1.1"/><path class="cls-5" d="M181.4,86.9c-21.6,4.7-46.2,13.5-50.3,35.8-12.2,60.8,82.4,52.1,91.9,107.5,4,24.3-4.8,33.7-29.8,35.8-19.6,1.3-35.1-2.1-52-11.5-14.8-8.1-23-18.3-35.8-29.1s-26.3-29.7-44.6-31c-15.5-1.4-16.2,10.1-20.9,22.9-3.4,8.1-3.4,19.6-10.8,25.7-4.4,3.6-10.7,4.4-17,4.4"/><path class="cls-4" d="M6,247.2H0"/><path class="cls-6" d="M199.3,83.5l-3.9.7"/><path class="cls-7" d="M187.6,85.7c-22.8,4.3-52,12.5-56.5,37-12.2,60.8,82.4,52.1,91.9,107.5,4,24.3-4.8,33.7-29.8,35.8-19.6,1.3-35.1-2.1-52-11.5-14.8-8.1-23-18.3-35.8-29.1s-26.3-29.7-44.6-31c-15.5-1.4-16.2,10.1-20.9,22.9-3.4,8.1-3.4,19.6-10.8,25.7-5.4,4.4-13.7,4.6-21.1,4.3"/><path class="cls-6" d="M4,247.1H0"/></g></g></svg>