<svg id="layer" xmlns="http://www.w3.org/2000/svg" viewBox="0 0 600 165.4"><defs><style>.cls-1,.cls-7{fill:#59c1a7;}.cls-1,.cls-2{opacity:0.25;}.cls-1,.cls-2,.cls-3,.cls-4{isolation:isolate;}.cls-2,.cls-6{fill:#36c3f2;}.cls-3,.cls-8{fill:#ef3d55;}.cls-3,.cls-4{opacity:0.15;}.cls-4,.cls-5{fill:#6a266d;}.cls-9{fill:#333332;}</style></defs><title>iterable-inc-logo-vector</title><g id="Lines"><rect class="cls-1" x="92.3" y="96.1" width="85.1" height="42.9" transform="translate(-65.1 125) rotate(-45)"/><rect class="cls-2" x="113.1" y="14.5" width="42.9" height="85.1" transform="translate(-22.4 107) rotate(-45)"/><rect class="cls-3" x="52" y="75.2" width="42.9" height="85.1" transform="translate(-83.2 81.6) rotate(-45)"/><rect class="cls-4" x="32.3" y="34.1" width="85.1" height="42.9" transform="translate(-38.8 64.4) rotate(-45)"/></g><g id="Nodes"><circle class="cls-5" cx="82.5" cy="21.6" r="21.6"/><circle class="cls-6" cx="143.5" cy="82.8" r="21.6"/><circle class="cls-7" cx="82.5" cy="143.8" r="21.6"/><circle class="cls-8" cx="21.6" cy="82.6" r="21.6"/></g><path class="cls-9" d="M374.7,62H348.4a.9.9,0,0,0-.9.9v46.3a.9.9,0,0,0,.9.9h26.3a.9.9,0,0,0,.9-.9v-7.4a.9.9,0,0,0-.9-.9H358.6a1.6,1.6,0,0,1-1.7-1.7V91.6a1.6,1.6,0,0,1,1.7-1.7h14.7a.9.9,0,0,0,.9-.9V82.4a.9.9,0,0,0-.9-.9H358.6a1.6,1.6,0,0,1-1.7-1.7v-7a1.6,1.6,0,0,1,1.7-1.7h16.1a.9.9,0,0,0,.9-.9V63a.9.9,0,0,0-.9-1Zm109.2,48.1a.8.8,0,0,0,.7-.4.8.8,0,0,0,.1-.8L466.1,62.5c-.2-.3-.5-.6-.8-.6h-4.7a.9.9,0,0,0-.8.6l-18.6,46.3a.8.8,0,0,0,.1.8,1.3,1.3,0,0,0,.7.4h8.5c.4,0,.6-.2.8-.6l2.3-6.4a1.8,1.8,0,0,1,1.6-1.1h15.6a1.8,1.8,0,0,1,1.6,1.1l2.2,6.4c.2.3.4.6.8.6Zm-15.8-17a1.5,1.5,0,0,1-1.4.7h-7.3a1.6,1.6,0,0,1-1.6-2.2l3.6-10.2a1.7,1.7,0,0,1,3.2,0l3.6,10.2A1.4,1.4,0,0,1,468.1,93.1Zm107.7,17a.9.9,0,0,0,.9-.9v-7.4a.9.9,0,0,0-.9-.9H562.1a1.6,1.6,0,0,1-1.7-1.7V62.8a.9.9,0,0,0-.9-.9h-7.7a.9.9,0,0,0-.9.9v46.3a.9.9,0,0,0,.9.9Zm-74.7,0h18.2a16.4,16.4,0,0,0,8.1-1.9,13.6,13.6,0,0,0,5.1-5,13.9,13.9,0,0,0,1.8-6.6A12.7,12.7,0,0,0,527,84.7c-.2-.1-.2-.2-.2-.4v-.2l.2-.2a11.7,11.7,0,0,0,4.2-9.1,13.7,13.7,0,0,0-1.6-6.3,11.2,11.2,0,0,0-4.8-4.6,18.4,18.4,0,0,0-8-1.8H501.4a.9.9,0,0,0-1,1v46.2C500.1,109.7,500.6,110.1,501.1,110.1Zm8.5-37.5a1.4,1.4,0,0,1,1.4-1.4h4.2a6.3,6.3,0,0,1,4.4,1.4,4.9,4.9,0,0,1,1.6,3,5.4,5.4,0,0,1-1.6,4.5,6.2,6.2,0,0,1-4.5,1.6H511a1.4,1.4,0,0,1-1.4-1.4Zm0,18.4a1.4,1.4,0,0,1,1.4-1.4h6.4a6,6,0,0,1,4.6,1.7,5.2,5.2,0,0,1,1.8,4.1,5.6,5.6,0,0,1-1.8,4.2,6.4,6.4,0,0,1-4.7,1.7H511a1.5,1.5,0,0,1-1.5-1.5h0Zm-90.7,2.5a1.5,1.5,0,0,1,.6-2.2,14.4,14.4,0,0,0,5-5.1,17.2,17.2,0,0,0,2.2-8.3,16.5,16.5,0,0,0-2-7.8,15.4,15.4,0,0,0-5.8-5.8,17.2,17.2,0,0,0-8.6-2.2H395.7a.9.9,0,0,0-.9.9v46.3a.9.9,0,0,0,.9.9h7.7a.9.9,0,0,0,.9-.9v-14a1.6,1.6,0,0,1,1.7-1.7h2.3a1.6,1.6,0,0,1,1.5.9l7.9,15.2a1,1,0,0,0,.8.5h8.7a1,1,0,0,0,1-.8.6.6,0,0,0-.2-.5ZM415,82.7a7.3,7.3,0,0,1-5.3,1.8h-3.8a1.6,1.6,0,0,1-1.7-1.7v-10a1.6,1.6,0,0,1,1.7-1.7h3.8A7.5,7.5,0,0,1,415,73a6.7,6.7,0,0,1,.2,9.4c-.1.1-.2.2-.2.3ZM329.9,62H299.6a.9.9,0,0,0-.9.9h0v7.4a.9.9,0,0,0,.9.9h8.9a1.6,1.6,0,0,1,1.7,1.7h0v36.5a.9.9,0,0,0,.9.9h7.8a.9.9,0,0,0,.9-.9h0V72.8a1.6,1.6,0,0,1,1.7-1.7h8.6a.9.9,0,0,0,.9-.9V62.8a1.3,1.3,0,0,0-1.1-.8Zm290.6,39H604.4a1.6,1.6,0,0,1-1.7-1.7V91.7a1.6,1.6,0,0,1,1.7-1.7h14.7a.9.9,0,0,0,.9-.9V82.5a.9.9,0,0,0-.9-.9H604.4a1.6,1.6,0,0,1-1.7-1.7v-7a1.6,1.6,0,0,1,1.7-1.7h16.1a.9.9,0,0,0,.9-.9V63a.9.9,0,0,0-.9-.9H594.2a.9.9,0,0,0-.9.9v46.3a.9.9,0,0,0,.9.9h26.4a.9.9,0,0,0,.9-.9v-7.4A1.1,1.1,0,0,0,620.5,101Zm-339.7-.1h-7.6a1.6,1.6,0,0,1-1.7-1.7h0V72.7a1.6,1.6,0,0,1,1.7-1.7h7.7a.9.9,0,0,0,.9-.9h0V62.7a.9.9,0,0,0-.9-.9H252.2a.9.9,0,0,0-.9.9h0v7.4a.9.9,0,0,0,.9.9h8.1a1.6,1.6,0,0,1,1.7,1.7V99.3a1.7,1.7,0,0,1-1.7,1.6h-8.1a.9.9,0,0,0-.9.9h0v7.4a.9.9,0,0,0,.9.9h18.4c.1,0,.2,0,.2-.1h10a.9.9,0,0,0,.9-.9h0v-7.4a.9.9,0,0,0-.9-.9Z" transform="translate(-21.5 -4.8)"/></svg>