<?xml version="1.0" encoding="utf-8"?>
<!-- Generator: Adobe Illustrator 21.0.0, SVG Export Plug-In . SVG Version: 6.00 Build 0)  -->
<svg version="1.1" id="Layer_1" xmlns="http://www.w3.org/2000/svg" xmlns:xlink="http://www.w3.org/1999/xlink" x="0px" y="0px"
	 viewBox="0 0 240 90" enable-background="new 0 0 240 90" xml:space="preserve">
<g>
	<g>
		<g>
			<path fill="#E42313" d="M107.4,23.6h9.6l-5.1-8.2l-9.3,14.8l-4.3,0l11.3-17.8c0.5-0.7,1.3-1.2,2.2-1.2c0.9,0,1.7,0.4,2.2,1.1
				l11.4,17.8l-4.3,0l-2-3.3h-9.7L107.4,23.6"/>
			<path fill="#E42313" d="M151.5,26.9V11.4h-3.6v17c0,0.5,0.2,0.9,0.5,1.2c0.3,0.3,0.8,0.5,1.3,0.5h16.4l2.1-3.3H151.5"/>
			<path fill="#E42313" d="M91.9,24.1c3.5,0,6.3-2.8,6.3-6.3c0-3.5-2.8-6.3-6.3-6.3H76.1v18.7h3.6V14.7h11.9c1.7,0,3,1.4,3,3
				c0,1.7-1.4,3-3,3l-10.2,0l10.8,9.4h5.2l-7.2-6.1L91.9,24.1"/>
			<path fill="#E42313" d="M53.9,30.2c-5.2,0-9.4-4.2-9.4-9.4c0-5.2,4.2-9.4,9.4-9.4h10.9c5.2,0,9.4,4.2,9.4,9.4
				c0,5.2-4.2,9.4-9.4,9.4L53.9,30.2 M64.6,26.9c3.4,0,6.1-2.7,6.1-6.1c0-3.4-2.7-6.1-6.1-6.1H54.2c-3.4,0-6.1,2.7-6.1,6.1
				c0,3.3,2.7,6.1,6.1,6.1H64.6"/>
			<path fill="#E42313" d="M133,30.2c-5.2,0-9.4-4.2-9.4-9.4c0-5.2,4.2-9.4,9.4-9.4h12.9l-2.1,3.3h-10.6c-3.4,0-6.1,2.7-6.1,6.1
				c0,3.3,2.7,6.1,6.1,6.1h13l-2.1,3.3L133,30.2"/>
			<path fill="#E42313" d="M177.1,26.9c-2.8,0-5.1-1.9-5.8-4.4h15.4l2.1-3.3h-17.5c0.7-2.6,3.1-4.4,5.8-4.4h10.6l2.1-3.3h-12.9
				c-5.2,0-9.4,4.2-9.4,9.4c0,5.2,4.2,9.4,9.4,9.4h11.1l2.1-3.3L177.1,26.9"/>
			<path fill="#E42313" d="M191.7,13.4c0-0.9,0.7-1.7,1.7-1.7c0.9,0,1.7,0.7,1.7,1.7c0,0.9-0.7,1.7-1.7,1.7
				C192.4,15.1,191.7,14.3,191.7,13.4 M193.3,15.5c1.2,0,2.1-0.9,2.1-2.1c0-1.2-0.9-2.1-2.1-2.1c-1.2,0-2.1,1-2.1,2.1
				C191.2,14.6,192.2,15.5,193.3,15.5 M193.1,12.2c0.3,0,0.5,0,0.6,0.1c0.4,0.1,0.4,0.5,0.4,0.7c0,0,0,0.1,0,0.2
				c0,0.1-0.1,0.3-0.3,0.4c0,0,0,0-0.1,0.1l0.5,1h-0.5l-0.5-0.9H193v0.9h-0.5v-2.4L193.1,12.2 M193.3,13.3c0.1,0,0.3,0,0.4-0.1
				c0.1-0.1,0.1-0.1,0.1-0.2c0-0.1-0.1-0.2-0.2-0.3c-0.1,0-0.2,0-0.4,0H193v0.7H193.3"/>
		</g>
	</g>
	<g>
		<g>
			<g>
				<path d="M50.6,58.5H55v3.1c0.9-2.1,2.3-3.5,4.9-3.4v4.6h-0.2c-2.9,0-4.7,1.8-4.7,5.4v5.7h-4.4V58.5z"/>
				<path d="M60.2,66.4L60.2,66.4c0-4.5,3.1-8.1,7.6-8.1c5.2,0,7.5,4,7.5,8.4c0,0.3,0,0.8-0.1,1.2H64.5c0.4,2,1.8,3,3.8,3
					c1.5,0,2.5-0.5,3.7-1.6l2.5,2.2c-1.4,1.8-3.5,2.9-6.3,2.9C63.6,74.4,60.2,71.2,60.2,66.4z M71.1,65.1c-0.3-2-1.4-3.3-3.3-3.3
					c-1.8,0-3,1.3-3.3,3.3H71.1z"/>
				<path d="M78.2,69c1.2,1.2,2.7,2.1,4.4,2.1c1.1,0,2.7-0.3,2.7-1.5c0-0.5-0.3-0.7-0.6-0.9c-0.7-0.3-1.7-0.4-2.6-0.6
					c-0.7-0.1-1.4-0.3-2-0.5c-0.9-0.3-1.8-0.6-2.5-1.3c-0.7-0.7-1.1-1.7-1.1-2.8c0-2.5,2.1-5,6.3-5c3.5,0,5.7,1.5,6.7,2.2l-2.7,2.5
					c-1.4-1.1-2.7-1.5-3.8-1.5c-1.7,0-2.1,0.7-2.1,1.1c0,0.9,0.9,1,2.4,1.3c3,0.5,6.5,1.4,6.5,4.9c0,3.5-3.6,5.3-7.1,5.3
					c-4.2,0-6.3-2-7.3-2.9L78.2,69z"/>
				<path d="M91,58.6h4.4v2.2c1.1-1.4,2.5-2.5,4.8-2.5c3.6,0,7,2.8,7,8v0.1c0,5.1-3.4,8-7,8c-2.3,0-3.8-1.1-4.8-2.3v6.6H91V58.6z
					 M102.8,66.4L102.8,66.4c0-2.6-1.7-4.3-3.8-4.3c-2,0-3.7,1.7-3.7,4.3v0.1c0,2.6,1.7,4.3,3.7,4.3C101.1,70.6,102.8,69,102.8,66.4
					z"/>
				<path d="M108.3,66.4L108.3,66.4c0-4.5,3.6-8.1,8.4-8.1c4.8,0,8.3,3.5,8.3,8v0.1c0,4.4-3.6,8-8.4,8
					C111.8,74.4,108.3,70.9,108.3,66.4z M120.6,66.4L120.6,66.4c0-2.3-1.6-4.3-4.1-4.3c-2.5,0-4,1.9-4,4.2v0.1
					c0,2.3,1.6,4.3,4.1,4.3C119.1,70.6,120.6,68.7,120.6,66.4z"/>
				<path d="M126.1,58.6h4.4v2.2c1-1.3,2.3-2.5,4.5-2.5c3.3,0,5.2,2.2,5.2,5.7v10h-4.4v-8.6c0-2.1-1-3.1-2.6-3.1
					c-1.7,0-2.7,1.1-2.7,3.1v8.6h-4.4L126.1,58.6L126.1,58.6z"/>
				<path d="M144.1,69c1.2,1.2,2.7,2.1,4.4,2.1c1.1,0,2.7-0.3,2.7-1.5c0-0.5-0.3-0.7-0.6-0.9c-0.7-0.3-1.7-0.4-2.6-0.6
					c-0.7-0.1-1.4-0.3-2-0.5c-0.9-0.3-1.8-0.6-2.5-1.3c-0.7-0.7-1.1-1.7-1.1-2.8c0-2.5,2.1-5,6.3-5c3.5,0,5.7,1.5,6.7,2.2l-2.7,2.5
					c-1.4-1.1-2.7-1.5-3.8-1.5c-1.7,0-2.1,0.7-2.1,1.1c0,0.9,1,1,2.4,1.3c3,0.5,6.5,1.4,6.5,4.9c0,3.5-3.6,5.3-7.1,5.3
					c-4.2,0-6.3-2-7.3-2.9L144.1,69z"/>
				<path d="M156.7,77.7l1.5-3.2c0.6,0.3,1.3,0.6,1.9,0.6c0.7,0,1.1-0.2,1.5-1l-6-15.5h4.6l3.5,10.5l3.4-10.5h4.5l-5.9,15.8
					c-1.2,3.1-2.5,4.3-5.1,4.3C159,78.7,157.8,78.3,156.7,77.7z"/>
				<path d="M173,69c1.2,1.2,2.7,2.1,4.4,2.1c1.1,0,2.7-0.3,2.7-1.5c0-0.5-0.3-0.7-0.6-0.9c-0.7-0.3-1.7-0.4-2.6-0.6
					c-0.7-0.1-1.4-0.3-2-0.5c-0.9-0.3-1.8-0.6-2.5-1.3c-0.7-0.7-1.1-1.7-1.1-2.8c0-2.5,2.1-5,6.3-5c3.5,0,5.7,1.5,6.7,2.2l-2.7,2.5
					c-1.4-1.1-2.7-1.5-3.8-1.5c-1.7,0-2.1,0.7-2.1,1.1c0,0.9,0.9,1,2.4,1.3c3,0.5,6.5,1.4,6.5,4.9c0,3.5-3.6,5.3-7.1,5.3
					c-4.2,0-6.3-2-7.3-2.9L173,69z"/>
			</g>
		</g>
		<g>
			<g>
				<g>
					<path d="M186.8,59.7h0.7c0.3,0,0.5,0,0.7,0.2c0.1,0.1,0.2,0.3,0.2,0.5c0,0.4-0.3,0.5-0.4,0.6l0.5,0.9H188l-0.4-0.8h-0.4v0.8
						h-0.4L186.8,59.7L186.8,59.7z M187.2,60.1v0.7h0.1c0.1,0,0.2,0,0.3,0c0.1,0,0.4,0,0.4-0.3c0,0,0-0.2-0.2-0.3
						c-0.1,0-0.2,0-0.4,0C187.4,60.1,187.2,60.1,187.2,60.1z"/>
				</g>
			</g>
			<path d="M189.4,60.8c0,1-0.9,1.9-1.9,1.9c-1,0-1.9-0.9-1.9-1.9c0-1,0.8-1.9,1.9-1.9C188.6,58.9,189.4,59.7,189.4,60.8z
				 M187.5,59.2c-0.9,0-1.6,0.7-1.6,1.6s0.7,1.6,1.6,1.6c0.9,0,1.6-0.7,1.6-1.6C189.1,59.9,188.4,59.2,187.5,59.2z"/>
		</g>
	</g>
	<rect x="46.1" y="43.5" width="147.8" height="1.5"/>
</g>
</svg>
